<?xml version="1.0" standalone="no"?>
<!DOCTYPE svg PUBLIC "-//W3C//DTD SVG 1.1//EN" "http://www.w3.org/Graphics/SVG/1.1/DTD/svg11.dtd" >
<svg xmlns="http://www.w3.org/2000/svg">
<metadata></metadata>
<defs>
<font id="springsteel_serifheavy" horiz-adv-x="693" >
<font-face units-per-em="1000" ascent="750" descent="-250" />
<missing-glyph horiz-adv-x="220" />
<glyph unicode="&#xfb01;" horiz-adv-x="654" d="M32 0v98q40 7 86 9q-4 99 -4 227v69h-75v97q33 7 75 10q0 51 7.5 90.5t19 65.5t31 44.5t37 28t45 14.5t45.5 6t48 1q47 0 98.5 -6t79.5 -12l28 -5v-174h-96q-7 29 -10 77h-100q-34 0 -50.5 -3t-30.5 -16t-18.5 -38.5t-4.5 -72.5q0 -2 35.5 -4t92.5 -4t108 -2h74v-392 l79 -5v-103h-273v98q24 7 69 9q-4 96 -4 226l2 65q-51 5 -97 5h-86v-295l66 -5v-103h-277z" />
<glyph unicode="&#xfb02;" horiz-adv-x="665" d="M32 0v98q40 7 86 9q-4 99 -4 227v63h-75v103q33 7 75 10q0 51 7.5 90.5t19 65.5t31 44.5t37 28t45 14.5t45.5 6t48 1q47 0 103 -2.5t88 -5.5l32 -2q-5 -286 -5 -417v-225l77 -5v-103h-273v98q25 7 70 9q-4 96 -4 226q0 159 6 307h-94q-34 0 -50.5 -3t-30.5 -16 t-18.5 -38.5t-4.5 -72.5l92 -10v-103h-92v-289l66 -5v-103h-277z" />
<glyph unicode="&#xfb03;" horiz-adv-x="977" d="M32 0v98q40 7 86 9q-4 99 -4 227v69h-75v97q33 6 75 9q0 52 7.5 91t22.5 64t32.5 40.5t43.5 23t48 10t54 2.5h80v-142h-80q-8 21 -9 40h-11q-33 0 -46 -32t-13 -96h194q0 51 7.5 90.5t19 65.5t31 44.5t37 28t45 14.5t45.5 6t48 1q48 0 99.5 -6t79.5 -12l28 -5v-174h-97 q-7 29 -10 77h-100q-34 0 -50.5 -3t-30.5 -16t-18 -38.5t-4 -72.5q0 -2 35.5 -4t92 -4t107.5 -2h75v-392l78 -5v-103h-273v98q24 7 69 9q-4 96 -4 226l2 65q-51 5 -97 5h-85v-295l65 -5v-103h-277v98q40 7 86 9q-4 99 -4 227v69h-194v-295l62 -5v-103h-273z" />
<glyph unicode="&#xfb04;" horiz-adv-x="989" d="M32 0v98q40 7 86 9q-4 99 -4 227v69h-75v97q33 6 75 9q0 52 7.5 91t22.5 64t32.5 40.5t43.5 23t48 10t54 2.5h80v-142h-80q-8 21 -9 40h-11q-33 0 -46 -32t-13 -96h194q0 51 7.5 90.5t19 65.5t31 44.5t37 28t45 14.5t45.5 6t48 1q48 0 103.5 -2.5t87.5 -5.5l32 -2 q-5 -286 -5 -417v-225l77 -5v-103h-273v98q25 7 70 9q-4 96 -4 226q0 159 6 307h-94q-34 0 -50.5 -3t-30.5 -16t-18 -38.5t-4 -72.5l91 -10v-97h-91v-295l65 -5v-103h-277v98q40 7 86 9q-4 99 -4 227v69h-194v-295l62 -5v-103h-273z" />
<glyph horiz-adv-x="1000" />
<glyph horiz-adv-x="1000" />
<glyph unicode="&#xd;" horiz-adv-x="1000" />
<glyph unicode=" "  horiz-adv-x="220" />
<glyph unicode="&#x09;" horiz-adv-x="220" />
<glyph unicode="&#xa0;" horiz-adv-x="220" />
<glyph unicode="!" horiz-adv-x="281" d="M74 190v160q0 59 2.5 146.5t5.5 145.5l2 58h125q-5 -217 -5 -350v-160h-130zM64 63q0 31 22 53t53 22t53 -22t22 -53t-22 -53t-53 -22t-53 22t-22 53z" />
<glyph unicode="&#x22;" horiz-adv-x="419" d="M376 470h-120q-10 97 -10 230h130v-230zM169 470h-119q-10 97 -10 230h129v-230z" />
<glyph unicode="#" horiz-adv-x="685" d="M43 175v115h125v120h-125v115h129l6 175h125q-1 -81 -4 -175h93l6 175h125q-1 -81 -4 -175h124v-115h-125v-120h125v-115h-124l4 -175h-125q-3 81 -6 175h-93l4 -175h-125q-3 81 -6 175h-129zM298 290h90v120h-90v-120z" />
<glyph unicode="$" horiz-adv-x="562" d="M223 -110v101q-45 5 -85.5 14t-59.5 15l-18 7v166h98q7 -38 10 -77q50 -6 102 -6q123 0 123 65q0 36 -22 53.5t-88 21.5q-135 9 -187.5 59t-52.5 149q0 78 39 125.5t141 62.5l5 104h115v-103q38 -4 74 -14t53 -18l17 -8v-154h-99q-6 35 -8 69q-47 8 -83 8q-74 0 -99 -19 t-25 -53q0 -40 21.5 -57t88.5 -21q135 -9 187.5 -59t52.5 -146q0 -155 -180 -181l-5 -104h-115z" />
<glyph unicode="%" horiz-adv-x="701" d="M98 0l325 590h-99q-3 -7 -3 -28q0 -62 -36 -99.5t-105 -37.5t-105.5 37.5t-36.5 99.5q0 95 54 121.5t219 26.5q72 0 147 -2.5t114 -5.5l39 -2l-383 -700h-130zM144 562q0 -14 10 -23.5t26 -9.5t25.5 9.5t9.5 23.5t-9.5 23.5t-25.5 9.5t-26 -9.5t-10 -23.5zM381 127 q0 62 36.5 99t105.5 37t105 -37t36 -99t-36 -99.5t-105 -37.5t-105.5 37.5t-36.5 99.5zM488 127q0 -15 9.5 -24t25.5 -9t25.5 9t9.5 24q0 14 -9.5 23t-25.5 9t-25.5 -9t-9.5 -23z" />
<glyph unicode="&#x26;" horiz-adv-x="721" d="M678 0h-150l-38 39q-78 -49 -189 -49q-74 0 -128.5 20t-83.5 54t-42 71t-13 78q0 47 24.5 102.5t82.5 88.5q-15 16 -31 53t-16 70q0 183 205 183q110 0 157.5 -49t47.5 -124q0 -54 -38.5 -101.5t-110.5 -80.5l124 -129q8 26 17 44l-65 5v110h260v-105q-33 -7 -72 -9 q-12 -82 -48 -139l16 -17l91 -10v-105zM404 130l-174 180q-67 -28 -66 -93v-4q0 -38 33 -70.5t104 -32.5q69 0 103 20zM266 447q30 10 52.5 23.5t32.5 24t16 21.5t6.5 15t0.5 6q0 53 -75 53t-75 -63q0 -30 42 -80z" />
<glyph unicode="'" horiz-adv-x="213" d="M169 470h-119q-10 97 -10 230h129v-230z" />
<glyph unicode="(" horiz-adv-x="317" d="M296 -150h-119q-5 5 -14 16t-31.5 50.5t-39.5 86.5t-31 127t-14 170t13.5 169t32.5 128.5t38 85.5t33 51l13 16h119q-5 -5 -13 -16t-28.5 -50.5t-36.5 -86.5t-29 -127t-13 -170t12.5 -169t30 -128.5t35 -85.5t30.5 -51z" />
<glyph unicode=")" horiz-adv-x="317" d="M140 -150h-120q5 5 13 16t28.5 50.5t36.5 86.5t29 127t13 170t-12.5 169t-30 128.5t-35 85.5t-30.5 51l-12 16h120q5 -5 14 -16t31.5 -50.5t39.5 -86.5t31 -127t14 -170t-13.5 -169t-32.5 -128.5t-38 -85.5t-32 -51z" />
<glyph unicode="*" horiz-adv-x="397" d="M164 380l-88 50q15 30 33 62l-71 2v100l69 3l-32 62l87 50q20 -29 36 -60l38 60l88 -50q-14 -32 -33 -62l67 -3v-100q-34 -2 -68 -2l32 -62l-87 -50q-20 27 -37 58z" />
<glyph unicode="+" horiz-adv-x="575" d="M347 30h-120q-5 96 -5 200h-185v120h185l5 200h120v-200h190v-120h-190v-200z" />
<glyph unicode="," horiz-adv-x="222" d="M145 -140h-107q10 133 10 266h130q0 -59 -8 -125.5t-16 -103.5z" />
<glyph unicode="-" horiz-adv-x="347" d="M54 230v120h240v-120h-240z" />
<glyph unicode="." horiz-adv-x="219" d="M34 63q0 31 22 53t53 22t53 -22t22 -53t-22 -53t-53 -22t-53 22t-22 53z" />
<glyph unicode="/" horiz-adv-x="401" d="M26 -80l220 830h131l-220 -830h-131z" />
<glyph unicode="0" horiz-adv-x="604" d="M302 -10q-52 0 -93.5 13.5t-67.5 32t-44.5 51.5t-27.5 59.5t-14 70t-5.5 67t-0.5 66.5t0.5 66.5t5.5 67t14 70t27.5 59.5t44.5 51.5t67.5 32t93.5 13.5t93.5 -13.5t67.5 -32t44.5 -51.5t27.5 -59.5t14 -70t5.5 -67t0.5 -66.5t-0.5 -66.5t-5.5 -67t-14 -70t-27.5 -59.5 t-44.5 -51.5t-67.5 -32t-93.5 -13.5zM302 110q26 0 45.5 8t32.5 18.5t22 31.5t13.5 37.5t6.5 46.5t2.5 47t0.5 51q0 40 -0.5 60t-4 54t-11 51.5t-20.5 37.5t-35 28.5t-52 8.5q-26 0 -46 -7.5t-33 -18.5t-22 -32t-13.5 -37t-6.5 -46t-2.5 -47.5t-0.5 -51.5t0.5 -51t2.5 -47 t6.5 -46.5t13.5 -37.5t22 -31.5t33 -18.5t46 -8z" />
<glyph unicode="1" horiz-adv-x="379" d="M50 0v105q46 7 91 9q-4 101 -4 236q0 101 5 209l-5 -1q-56 -16 -103 -16v108q35 0 65 12.5t43 25.5l12 12h119q-5 -213 -5 -350q0 -172 6 -235l76 -5v-110h-300z" />
<glyph unicode="2" horiz-adv-x="566" d="M506 190v-190q-113 -10 -220 -10q-51 0 -107.5 2.5t-87.5 5.5l-31 2q-10 93 -10 188q0 89 49 142.5t171 71.5q64 9 95 36.5t31 64.5q0 36 -28.5 61.5t-99.5 25.5q-47 0 -98 -8l-9 -82h-105v160q8 6 23.5 14t70.5 22t118 14q139 0 198.5 -58.5t59.5 -148.5 q0 -89 -58 -150.5t-185 -81.5q-104 -15 -104 -84v-77h107q72 0 107 2l8 78h105z" />
<glyph unicode="3" horiz-adv-x="558" d="M46 187h104q6 -34 9 -71q37 -6 92 -6q73 0 100.5 21t27.5 56q0 98 -127 103l-116 5v112h116q61 0 94 32t33 73q0 78 -128 78q-31 0 -85 -8l-9 -82h-105v160q6 6 19.5 14t65 22t114.5 14q258 0 258 -198q0 -99 -83 -162q39 -29 61 -73.5t22 -89.5q0 -197 -258 -197 q-62 0 -113 12.5t-72 25.5l-20 12v147z" />
<glyph unicode="4" horiz-adv-x="607" d="M266 0v105q39 7 84 9q-5 106 -4 138h-331q8 57 35 169t50.5 197t25.5 82h125q-65 -220 -87 -329h182q0 56 2.5 138.5t5.5 136.5l2 54h127q-7 -202 -7 -329h87v-109q-40 -8 -87 -10l3 -137l87 -5v-110h-300z" />
<glyph unicode="5" horiz-adv-x="556" d="M57 206h105q6 -40 9 -86q50 -10 105 -10q37 0 62 9t35.5 25.5t14 31t3.5 32.5q0 43 -24 72.5t-81 29.5h-229q0 61 2 156.5t4.5 164.5t3.5 69q122 10 209 10q39 0 91 -2.5t85 -5.5l32 -2v-200h-105q-6 45 -9 88q-35 2 -94 2h-89v-172q57 12 99 12q121 0 178 -64t57 -158 q0 -44 -9.5 -78.5t-34 -68t-76 -52.5t-125.5 -19q-62 0 -116.5 12.5t-78.5 25.5l-24 12v166z" />
<glyph unicode="6" horiz-adv-x="576" d="M504 508h-105q-6 38 -8 79q-29 3 -93 3q-70 0 -95.5 -45.5t-25.5 -132.5q61 11 121 11q121 0 182 -59t61 -155q0 -39 -4 -67.5t-19 -59t-40.5 -49t-71 -31t-108.5 -12.5q-57 0 -100.5 13.5t-70 41t-43.5 57.5t-24.5 76t-9.5 81.5t-2 88.5q0 38 1 64.5t4.5 63t10.5 62 t19 54.5t30.5 48.5t44 36.5t61 25t79.5 8q60 0 111.5 -8.5t72.5 -17.5l22 -9v-167zM177 303q0 -45 4 -75.5t15.5 -59.5t37 -43.5t64.5 -14.5q40 0 64.5 8.5t34 26.5t12 30.5t2.5 33.5q0 94 -113 94h-121z" />
<glyph unicode="7" horiz-adv-x="507" d="M31 500v200q132 10 234 10q52 0 117 -2.5t104 -5.5l39 -2q-236 -472 -331 -700h-136q90 216 277 590h-70q-57 0 -120 -5l-9 -85h-105z" />
<glyph unicode="8" horiz-adv-x="592" d="M296 -10q-75 0 -126.5 17t-77 47.5t-36 63.5t-10.5 75q0 49 21 90t62 62q-73 47 -73 158q0 99 51.5 153t188.5 54t188.5 -54t51.5 -153q0 -115 -73 -152q40 -17 61.5 -62.5t21.5 -95.5q0 -42 -10.5 -75t-36 -63.5t-77 -47.5t-126.5 -17zM279 292q-53 -9 -78 -35.5 t-25 -63.5t24 -60t96 -23q73 0 96.5 23t23.5 60q0 42 -29.5 64.5t-107.5 34.5zM313 405q52 8 72.5 33t20.5 65q0 19 -3 31.5t-13 26.5t-33.5 21.5t-60.5 7.5t-60.5 -7.5t-33.5 -21.5t-13 -26.5t-3 -31.5q0 -41 25 -63.5t102 -34.5z" />
<glyph unicode="9" horiz-adv-x="576" d="M72 196h105q5 -40 7 -81q30 -5 86 -5q72 0 100.5 39.5t28.5 127.5q-74 -12 -120 -12q-123 0 -183.5 62.5t-60.5 159.5q0 32 3 57t11.5 52t26 46t43 35.5t66 24.5t92.5 8q41 0 75 -8t58.5 -19.5t44 -33t31.5 -40t20.5 -48.5t13 -50.5t6.5 -55t2.5 -53t0.5 -52.5 q0 -43 -1.5 -74t-7.5 -71t-16.5 -68.5t-29.5 -58t-46 -47.5t-67 -29.5t-91 -11.5q-60 0 -109.5 10t-68.5 20l-20 10v166zM399 385q0 44 -3.5 75t-15 63.5t-37.5 49.5t-66 17t-64.5 -9t-34 -27.5t-11.5 -31t-2 -35.5q0 -102 114 -102h120z" />
<glyph unicode=":" horiz-adv-x="257" d="M54 63q0 31 22 53t53 22t52.5 -22t21.5 -53t-21.5 -53t-52.5 -22t-53 22t-22 53zM54 342q0 31 22 53t53 22t52.5 -22t21.5 -53t-21.5 -53t-52.5 -22t-53 21.5t-22 53.5z" />
<glyph unicode=";" horiz-adv-x="259" d="M55 342q0 31 22 53t53 22t53 -22t22 -53t-22 -53t-53 -22t-53 22t-22 53zM162 -140h-107q10 133 10 266h130q0 -59 -8.5 -125.5t-16.5 -103.5z" />
<glyph unicode="&#x3c;" horiz-adv-x="551" d="M492 160v-132q-65 18 -367 157l-67 29l2 -1q-25 30 -25 77t25 77q-12 -6 3 0q11 5 62 28q302 139 367 157v-132q-54 -19 -179 -71t-143 -59q18 -7 143 -59t179 -71z" />
<glyph unicode="=" horiz-adv-x="597" d="M59 127v120h480v-120h-480zM59 333v120h480v-120h-480z" />
<glyph unicode="&#x3e;" horiz-adv-x="625" d="M67 2v131q-8 -6 61 22q61 24 327 135q-389 162 -388 157v131q40 -1 499 -211q24 -32 24 -77t-24 -77q-461 -211 -499 -211z" />
<glyph unicode="?" horiz-adv-x="545" d="M163 190v50q0 61 28.5 106.5t111.5 76.5q43 16 59.5 37t16.5 60q0 35 -23 52.5t-98 17.5q-78 0 -105 -4l-9 -86h-105v160q9 6 27 14t75 22t117 14q140 0 195.5 -50t55.5 -140q0 -156 -170 -211q-22 -8 -32.5 -20t-12.5 -22t-2 -27v-50h-129zM153 63q0 31 21.5 53t53.5 22 q31 0 52.5 -22t21.5 -53t-21.5 -53t-52.5 -22t-53 22t-22 53z" />
<glyph unicode="@" horiz-adv-x="785" d="M480 433h97v-193l-5 -80h2q11 0 21 14t18 47t8 79q0 98 -54.5 142.5t-172.5 44.5q-227 0 -227 -247q0 -62 12 -107.5t31 -72t49.5 -42t61.5 -20.5t73 -5q93 0 170.5 8t108.5 16l31 8v-115q-104 -30 -310 -30q-174 0 -262 82.5t-88 277.5q0 183 90.5 271.5t259.5 88.5 q166 0 258 -78.5t92 -221.5q0 -126 -59.5 -193t-137.5 -67h-77v47q-9 -19 -36.5 -32t-48.5 -13q-165 0 -165 198q0 93 43 145.5t122 52.5q21 0 48.5 -13t36.5 -32zM412 325q-41 0 -55 -22.5t-14 -62.5q0 -85 69 -85q25 0 36 19.5t11 38.5v54q0 21 -11 39.5t-36 18.5z" />
<glyph unicode="A" d="M23 0v105q38 6 84 8q-4 108 -4 157q0 206 46 320l-96 5v105q94 0 160 5t138 5q32 0 65 -2.5t50 -5.5l17 -2q40 -39 65.5 -93t35.5 -119t13 -110t3 -108q0 -85 -4 -157l84 -8v-105h-300v110q45 5 90 5v164h-237v-164l90 -5v-110h-300zM232 392h238q-8 126 -44 200h-150 q-38 -78 -44 -200z" />
<glyph unicode="B" horiz-adv-x="644" d="M39 0v105q38 7 84 9q-4 101 -4 236q0 134 4 237l-84 8v105q60 0 155.5 5t142.5 5q76 0 128.5 -17t79.5 -48.5t38.5 -68t11.5 -83.5q0 -89 -78 -140q35 -18 61.5 -56.5t26.5 -89.5q0 -47 -11.5 -83.5t-38.5 -68t-79.5 -48.5t-128.5 -17q-55 0 -152 5t-156 5zM248 293 l2 -178q58 -5 97 -5q78 0 103 25.5t25 71.5q0 36 -33.5 61t-84.5 25h-109zM248 407h109q51 0 79.5 24.5t28.5 61.5q0 46 -25.5 71.5t-102.5 25.5l-89 -5v-178z" />
<glyph unicode="C" horiz-adv-x="592" d="M546 193v-165q-77 -38 -202 -38q-77 0 -135 26t-88.5 62.5t-49 89t-23.5 94t-5 88.5q0 48 5.5 90.5t24.5 94.5t50 88.5t88 61.5t133 25q56 0 106.5 -9.5t73.5 -18.5l22 -10v-167h-105q-7 41 -9 80q-37 5 -88 5q-63 0 -102.5 -35.5t-54 -86.5t-14.5 -118t14.5 -118 t54 -86.5t102.5 -35.5q51 0 99 13q1 20 3.5 37.5t4.5 25.5l2 7h93z" />
<glyph unicode="D" horiz-adv-x="662" d="M39 0v105q38 7 84 9q-4 101 -4 236q0 134 4 237l-84 8v105q67 0 157 5t146 5q47 0 86 -9t66.5 -27t48 -38.5t33.5 -50t21 -56t12 -61.5t5 -60t1 -58q0 -39 -1.5 -67.5t-7.5 -68.5t-16.5 -69t-31 -60t-48.5 -50.5t-71 -32t-97 -12.5q-58 0 -151.5 5t-151.5 5zM248 585 v-235l4 -235q46 -5 90 -5q37 0 63.5 13.5t41.5 35t24 54.5t11.5 64t2.5 73t-2.5 73t-11.5 64t-24 54.5t-41.5 35t-63.5 13.5z" />
<glyph unicode="E" horiz-adv-x="605" d="M39 0v105q38 7 84 9q-4 101 -4 236q0 134 4 237l-84 8v105q59 0 153 5t150 5q41 0 96 -2.5t90 -5.5l34 -2v-187h-105q-6 29 -9 73q-74 4 -106 4l-94 -5v-178h157l9 70h98v-254h-98q-7 32 -9 70h-157l5 -178q58 -5 89 -5q69 0 105 4l10 72h105v-186q-128 -10 -220 -10 q-57 0 -151 5t-152 5z" />
<glyph unicode="F" horiz-adv-x="591" d="M39 0v105q38 7 84 9q-4 101 -4 236q0 134 4 237l-84 8v105q59 0 153 5t150 5q41 0 96 -2.5t90 -5.5l34 -2v-187h-105q-6 29 -9 73q-74 4 -106 4l-94 -5v-178h156q1 17 3.5 34.5t4.5 26.5l2 9h98v-254h-98q-9 31 -10 70h-156q0 -4 3 -178l97 -5v-110h-309z" />
<glyph unicode="G" horiz-adv-x="659" d="M615 98v-98q-33 0 -128 -5t-168 -5q-52 0 -94 12.5t-70 32.5t-48.5 50t-32 60t-18.5 68.5t-9 69t-2 67.5q0 36 2 66.5t9 69t18 68.5t32 60.5t49 50.5t70 32.5t94 12.5q58 0 113.5 -11t82.5 -21l27 -11v-167h-105q-6 37 -9 80q-41 10 -109 10q-46 0 -76 -19t-44 -56 t-19 -74.5t-5 -90.5q0 -42 2.5 -72.5t11 -64.5t23.5 -54.5t42 -34.5t65 -14l93 3v180q-31 0 -63.5 2.5t-49.5 5.5l-17 3v103h340v-100q-39 -11 -80 -13q-1 -33 -3 -100.5t-3 -84.5z" />
<glyph unicode="H" horiz-adv-x="717" d="M39 0v105q38 7 84 9q-4 101 -4 236q0 134 4 237l-84 8v105h299v-110q-45 -5 -87 -5q-3 -177 -3 -178h221q0 1 -3 178l-87 5v110h300v-105q-39 -6 -84 -8q4 -103 4 -237q0 -135 -4 -236l84 -9v-105h-300v110q45 5 90 5v178h-221q0 -7 3 -178l87 -5v-110h-299z" />
<glyph unicode="I" horiz-adv-x="374" d="M39 0v105q38 7 84 9q-4 101 -4 236q0 134 4 237l-84 8v105h299v-110q-45 -5 -87 -5q-3 -114 -3 -235t3 -235l87 -5v-110h-299z" />
<glyph unicode="J" horiz-adv-x="449" d="M20 163h93q10 -27 10 -52h20q30 0 54.5 20.5t24.5 55.5q0 13 -2.5 64t-2.5 99q0 134 4 237l-81 8v105h297v-110q-46 -5 -88 -5q-2 -76 -2 -235v-176q0 -90 -59 -139.5t-162 -45.5q-15 0 -45 2l-61 4v168z" />
<glyph unicode="K" horiz-adv-x="703" d="M39 0v105q38 7 84 9q-4 101 -4 236q0 134 4 237l-84 8v105h299v-110q-45 -5 -87 -5q-3 -118 -3 -235l102 124q68 85 87 111l-68 5v110h313v-105q-40 -8 -87 -10q-91 -119 -126 -162q-8 -10 -69 -73q55 -53 196 -235l86 -10v-105h-313v110q36 4 68 5q-18 23 -117 145 l-72 90q0 -118 3 -235l87 -5v-110h-299z" />
<glyph unicode="L" horiz-adv-x="578" d="M39 0v105q38 7 84 9q-4 101 -4 236q0 134 4 237l-84 8v105h296v-110q-42 -5 -84 -5q-3 -114 -3 -235q0 -52 4 -187l1 -48q46 -5 89 -5q39 0 105 4l10 79h105v-193q-128 -10 -220 -10q-56 0 -150 5t-153 5z" />
<glyph unicode="M" horiz-adv-x="907" d="M39 0v105q38 7 84 9q-4 101 -4 236q0 136 4 237l-84 8v105h275q31 -86 72.5 -230.5t67.5 -259.5q64 283 139 490h276v-105q-38 -6 -84 -8q4 -101 4 -237q0 -135 -4 -236l84 -9v-105h-287v110q32 5 77 5v392l-43 -172q-16 -60 -40.5 -144t-41.5 -137l-17 -54h-127 q-63 199 -99 335l-43 172v-157q0 -124 3 -235l74 -5v-110h-286z" />
<glyph unicode="N" horiz-adv-x="742" d="M39 0v105q38 7 84 9q-4 101 -4 236q0 134 4 237l-84 8v105h249q209 -453 217 -494v144q0 83 -2 235l-88 5v110h300v-105q-38 -6 -85 -8q5 -128 5 -237q0 -61 -2.5 -148.5t-4.5 -144.5l-3 -57h-153q-2 6 -48 104.5t-101 217.5t-75 170v-142q0 -121 3 -235l87 -5v-110h-299 z" />
<glyph unicode="O" horiz-adv-x="669" d="M335 -10q-292 0 -292 360t292 360q291 0 291 -360t-291 -360zM335 110q161 0 161 240t-161 240q-162 0 -162 -240t162 -240z" />
<glyph unicode="P" horiz-adv-x="617" d="M39 0v105q38 7 84 9q-4 101 -4 236q0 134 4 237l-84 8v105q57 0 154.5 5t161.5 5q66 0 115 -19.5t75 -53.5t38 -72t12 -82q0 -88 -64 -151.5t-176 -63.5h-107l3 -153l97 -5v-110h-309zM248 382h107q53 0 81.5 31t28.5 70q0 42 -26 74.5t-84 32.5l-107 -5v-203z" />
<glyph unicode="Q" horiz-adv-x="669" d="M616 -93h-156l-49 90q-42 -7 -76 -7q-292 0 -292 360t292 360q291 0 291 -360q0 -222 -106 -306l14 -29q19 0 39.5 -2.5t31.5 -4.5l11 -3v-98zM236 280h159l58 -120q43 61 43 190q0 240 -161 240q-162 0 -162 -240t162 -240q7 0 12 -1l-33 63l-78 10v98z" />
<glyph unicode="R" horiz-adv-x="668" d="M39 0v105q38 7 84 9q-4 101 -4 236q0 134 4 237l-84 8v105q56 0 155 5t168 5q240 0 240 -217q0 -57 -32 -109t-90 -84q50 -85 86 -185l79 -10v-105h-293v110q34 5 66 5q-9 28 -27.5 70.5t-32.5 70.5l-13 28h-97l3 -169l68 -5v-110h-280zM248 399h114q51 0 80.5 28.5 t29.5 65.5q0 40 -26 68.5t-84 28.5l-114 -5v-186z" />
<glyph unicode="S" horiz-adv-x="583" d="M60 193h98q7 -35 10 -72q48 -11 108 -11q144 0 144 85q0 79 -134 90q-246 19 -246 218q0 44 10 77.5t36.5 65t79 48t130.5 16.5q64 0 119 -11t78 -23l23 -11v-160h-105q-6 37 -8 75q-50 10 -107 10q-41 0 -68.5 -7.5t-39 -21.5t-15.5 -27t-4 -31q0 -39 24.5 -60.5 t92.5 -27.5q133 -11 198.5 -71.5t65.5 -148.5q0 -87 -64.5 -146t-209.5 -59q-58 0 -112 12.5t-79 25.5l-25 12v153z" />
<glyph unicode="T" horiz-adv-x="601" d="M149 0v105q40 8 90 9q-4 101 -4 236q0 128 5 240h-106l-9 -83h-105v193q177 10 280 10q46 0 116 -2.5t117 -5.5l47 -2v-193h-105q-6 38 -8 79l-99 4h-3v-240q0 -135 4 -235l93 -5v-110h-313z" />
<glyph unicode="U" horiz-adv-x="710" d="M12 700h300v-110q-45 -5 -90 -5v-235q0 -37 0.5 -56t3 -49t7 -46t14 -36t23 -29.5t33.5 -16.5t47 -7q31 0 53.5 8.5t36 27t22 37t12 51t4.5 55t1 61.5v235l-90 5v110h313v-105q-39 -6 -97 -8q4 -103 4 -237q0 -60 -4 -105t-20 -96t-42.5 -83.5t-75.5 -54t-117 -21.5 q-42 0 -77 8t-60.5 19.5t-45 33t-32 39.5t-21.5 49t-13 50.5t-6.5 55t-2.5 53v52.5q0 134 4 237l-84 8v105z" />
<glyph unicode="V" horiz-adv-x="685" d="M3 700h299v-110q-38 -5 -77 -5q46 -178 62 -225l56 -175l55 175q14 43 62 225l-77 5v110h300v-105q-41 -7 -87 -9q-33 -125 -78 -266t-70 -210.5t-38 -102.5q-32 -12 -67 -12q-16 0 -33 3t-26 6l-9 3q-120 330 -186 579l-86 9v105z" />
<glyph unicode="W" horiz-adv-x="1062" d="M3 700h299v-110q-39 -5 -78 -5q49 -192 57 -222l47 -178l46 178q9 32 17.5 65t19.5 78t20 79q-18 0 -39 2.5t-32 4.5l-12 3v105h366v-105q-41 -9 -83 -10q9 -32 27.5 -108t29.5 -114l46 -178l47 178q8 30 57 222l-78 5v110h299v-105q-39 -7 -85 -8q-40 -180 -172 -580 q-33 -12 -68 -12q-16 0 -32.5 3t-25.5 6l-9 3q-106 322 -136 463q-30 -141 -136 -463q-32 -12 -67 -12q-16 0 -33 3t-26 6l-9 3q-132 400 -172 580l-85 8v105z" />
<glyph unicode="X" horiz-adv-x="663" d="M23 0v105q39 7 79 9q77 130 152 240q-47 68 -126 188l-30 45l-78 8v105h299v-110q-33 -5 -73 -5q2 -2 6 -9q46 -76 79 -122q20 27 86 131l-74 5v110h300v-105q-39 -7 -78 -8l-40 -59q-75 -112 -117 -174q76 -110 153 -240l79 -9v-105h-300v110q34 5 73 5l-56 99 q-14 22 -26 41q-56 -87 -81 -140l73 -5v-110h-300z" />
<glyph unicode="Y" horiz-adv-x="645" d="M168 0v105q39 7 84 9q6 83 6 169q-99 154 -171 303l-79 9v105h299v-110q-46 -5 -79 -5q44 -97 95 -183q47 79 94 183l-79 5v110h300v-105q-40 -7 -80 -9q-69 -143 -170 -303q0 -77 -4 -168l84 -5v-110h-300z" />
<glyph unicode="Z" horiz-adv-x="583" d="M543 183v-183q-124 -10 -245 -10q-62 0 -132.5 2.5t-109.5 5.5l-40 2q105 212 209 370q38 59 135 220h-66l-135 -4l-8 -79h-105v193q141 10 248 10q48 0 114.5 -2.5t108.5 -5.5l42 -2q-110 -221 -209 -370q-38 -59 -135 -220h83l136 4l10 69h99z" />
<glyph unicode="[" horiz-adv-x="328" d="M321 -44v-106q-55 0 -114 2.5t-90 5.5l-31 2q-15 280 -15 440q0 71 3.5 181t7.5 185l4 74q111 10 235 10v-107h-115q-5 -183 -5 -343l5 -344h115z" />
<glyph unicode="\" horiz-adv-x="401" d="M375 -80h-131l-220 830h131z" />
<glyph unicode="]" horiz-adv-x="326" d="M7 -44h115q5 184 5 344l-5 343h-115v107q55 0 113.5 -2.5t89.5 -5.5l32 -2q15 -280 15 -440q0 -71 -3.5 -181t-7.5 -185l-4 -74q-112 -10 -235 -10v106z" />
<glyph unicode="^" horiz-adv-x="623" d="M165 320h-125q60 138 198 380q25 10 74 10q21 0 39.5 -2.5t26.5 -5.5l7 -2l70 -123q79 -146 128 -257h-125l-146 287z" />
<glyph unicode="_" horiz-adv-x="511" d="M6 -190v120h500v-120h-500z" />
<glyph unicode="`" horiz-adv-x="316" d="M276 627l-71 -72q-78 45 -165 132l83 83q39 -39 77 -74.5t57 -51.5z" />
<glyph unicode="a" horiz-adv-x="523" d="M64 330v160q96 20 182 20q55 0 93.5 -15.5t58.5 -37.5t31 -60.5t13 -68.5t2 -78q0 -79 -4 -143l71 -9v-98q-62 0 -143 -5t-122 -5q-58 0 -99 11.5t-61.5 26.5t-32 40t-13.5 41.5t-2 41.5q0 22 2 38.5t13.5 41.5t32 41.5t61.5 28.5t99 12l68 -10q0 47 -15.5 70.5 t-52.5 23.5q-53 0 -75 -1l-8 -66h-99zM314 200h-68q-49 0 -64 -13.5t-15 -35.5q0 -14 4 -23t22.5 -17t52.5 -8l68 5v92z" />
<glyph unicode="b" horiz-adv-x="561" d="M20 0v98q39 7 84 9q-4 96 -4 226q0 190 6 310l-86 9v98h215q-4 -133 -5 -247q37 7 69 7q60 0 104 -18.5t66.5 -43.5t35.5 -64t16 -68t3 -66t-3 -66t-16 -68t-35.5 -64t-66.5 -43.5t-104 -18.5q-37 0 -126.5 5t-152.5 5zM230 393v-285q42 -5 69 -5q55 0 75 40t20 107 t-20 107t-75 40q-41 0 -69 -4z" />
<glyph unicode="c" horiz-adv-x="486" d="M441 145v-130q-87 -25 -172 -25q-71 0 -119 20t-71.5 58.5t-32 81t-8.5 100.5q0 40 3.5 71t17 68.5t37.5 62t68 41.5t104 17q44 0 87.5 -8t64.5 -16l21 -8v-160h-98q-6 37 -9 76h-13l-53 3q-101 0 -101 -147t102 -147q26 0 69 3h14q0 8 2.5 18t4.5 16l2 5h80z" />
<glyph unicode="d" horiz-adv-x="559" d="M244 750h207q10 -279 10 -413q0 -133 -4 -230l84 -9v-98q-63 0 -152 -5t-126 -5q-61 0 -104.5 18.5t-66.5 43.5t-35.5 64t-15.5 67.5t-3 66.5t3 66.5t15.5 67.5t35.5 64t66.5 43.5t104.5 18.5q33 0 68 -7q0 69 -3 140l-84 9v98zM331 108v285q-25 4 -68 4q-56 0 -76 -40 t-20 -107t20 -107t76 -40z" />
<glyph unicode="e" horiz-adv-x="487" d="M432 145v-130q-87 -25 -175 -25q-54 0 -93.5 14.5t-63 38t-38 59t-19 70t-4.5 78.5q0 63 8.5 106t31 80.5t67 55.5t111.5 18q63 0 106 -17t61 -45t24.5 -51t6.5 -49q0 -25 -6.5 -48t-24.5 -51t-61 -45t-106 -17q-20 0 -42 2.5t-35 4.5l-12 3q0 -94 89 -94q63 0 86 3 q0 8 2.5 18t4.5 16l2 5h80zM168 300h89q43 0 55.5 12t12.5 36q0 16 -3 25t-19 16.5t-46 7.5q-47 0 -68 -21.5t-21 -75.5z" />
<glyph unicode="f" horiz-adv-x="365" d="M32 0v98q40 7 86 9q-4 99 -4 231v59h-75v103q33 6 75 9q0 78 16 128.5t48 74t64 31t80 7.5h80v-142h-80q-8 21 -9 40h-11q-33 0 -46 -35t-13 -104l92 -9v-103h-92v-289l76 -5v-103h-287z" />
<glyph unicode="g" horiz-adv-x="558" d="M94 -97h87q9 -27 10 -51q29 -6 60 -6q48 0 64.5 36.5t15.5 116.5q-25 -9 -70 -9q-60 0 -103.5 18.5t-66 43.5t-35 64t-15.5 67.5t-3 66.5t3 66.5t15.5 67.5t35 64t66 43.5t103.5 18.5q35 0 119.5 -5t147.5 -5v-98q-26 -7 -71 -9q4 -100 4 -236v-11q0 -85 -1 -124 t-6.5 -97t-18.5 -83t-36 -53.5t-59.5 -38.5t-88.5 -10q-24 0 -63 4t-66 8l-28 3v148zM331 107v285q-33 5 -70 5q-55 0 -74.5 -38.5t-19.5 -108.5t19.5 -108.5t74.5 -38.5z" />
<glyph unicode="h" horiz-adv-x="624" d="M20 0v98q43 7 84 9q-4 97 -4 234q0 158 6 302l-86 9v98h215q-5 -134 -5 -248q45 8 87 8q43 0 77.5 -9.5t56.5 -24t38 -38t23.5 -43.5t12 -50.5t5 -48.5t0.5 -46q0 -68 -4 -143l84 -9v-98h-280v103q32 5 70 5v142q0 30 -1 46.5t-5 39t-12.5 33.5t-24.5 19.5t-40 8.5 l-87 -5v-284l70 -5v-103h-280z" />
<glyph unicode="i" horiz-adv-x="344" d="M36 0v98q37 7 82 9q-4 96 -4 226v60l-78 9v98h208v-392l78 -5v-103h-286zM102 638q0 31 22 53t53 22t53 -21.5t22 -53.5q0 -31 -22 -53t-53 -22t-53 22t-22 53z" />
<glyph unicode="j" horiz-adv-x="303" d="M-50 -250v142h80q8 -23 9 -41q18 0 30.5 3.5t20 15t11.5 19.5t6 31.5t2 34.5v45q0 8 -5 131.5t-5 201.5q0 36 -1 60l-78 9v98h208v-150q0 -85 2.5 -206t2.5 -144q0 -142 -41 -196t-152 -54h-90zM87 638q0 31 22 53t53 22t53 -22t22 -53t-22 -53t-53 -22t-53 22t-22 53z " />
<glyph unicode="k" horiz-adv-x="626" d="M20 0v98q39 7 84 9q-4 96 -4 230q0 159 6 306l-86 9v98h215q-5 -277 -5 -413v-87l40 41q73 75 98 101q-12 0 -25.5 1t-20.5 3l-8 1v103h286v-98q-39 -10 -79 -10q-68 -74 -144 -142q12 -13 64.5 -63.5t79.5 -78.5q17 0 36 -2.5t29 -5.5l11 -2v-98h-273v103q2 1 6.5 2 t16 2t21.5 1q-116 114 -138 142v-142l50 -5v-103h-260z" />
<glyph unicode="l" horiz-adv-x="331" d="M20 0v98q39 7 84 9q-4 96 -4 226q0 79 7 310l-87 9v98h215q-5 -286 -5 -417v-225l77 -5v-103h-287z" />
<glyph unicode="m" horiz-adv-x="958" d="M34 0v98q44 7 84 9q-4 96 -4 226v60l-77 9v98h185q7 -33 9 -40q12 18 46.5 34t63.5 16q59 0 92.5 -14t60.5 -41q48 55 157 55q38 0 69.5 -6.5t53 -20.5t37.5 -28.5t25.5 -37.5t15.5 -40.5t8.5 -44t3 -42t0.5 -40.5q0 -66 -4 -143l84 -9v-98h-286v103q38 5 76 5v142 q0 33 -3 55.5t-11.5 45.5t-27.5 34.5t-48 11.5q-94 0 -94 -127v-163l81 -9v-98h-284v98q37 6 81 9v143q0 44 -6 73t-27.5 51.5t-60.5 22.5q-90 0 -90 -127v-162l77 -5v-103h-287z" />
<glyph unicode="n" horiz-adv-x="648" d="M34 0v98q45 7 85 9q-5 120 -5 226v60l-77 9v98h185q7 -33 9 -40q13 18 44.5 34t58.5 16q61 0 104 -18.5t65 -43t34 -64.5t14.5 -67.5t2.5 -66.5q0 -46 -5 -143l85 -9v-98h-287v103q39 5 77 5v142q0 33 -3 55.5t-11.5 45.5t-27.5 34.5t-48 11.5q-90 0 -90 -127v-162l77 -5 v-103h-287z" />
<glyph unicode="o" horiz-adv-x="547" d="M273 96q57 0 82 44.5t25 109.5t-25 109t-82 44t-82 -44t-25 -109t25 -109.5t82 -44.5zM273 -10q-236 0 -236 260t236 260q237 0 237 -260t-237 -260z" />
<glyph unicode="p" horiz-adv-x="561" d="M20 -250v98q39 7 85 9q-5 152 -5 283q0 145 4 253l-84 9v98q63 0 152.5 5t125.5 5q61 0 104.5 -18.5t66.5 -43.5t35.5 -64t15.5 -67.5t3 -66.5t-3 -66.5t-15.5 -67.5t-35.5 -64t-66.5 -43.5t-104.5 -18.5q-33 0 -68 7q0 -76 1 -139l72 -5v-103h-283zM230 392v-286 q29 -3 68 -3t61 22.5t28 52t6 72.5t-6 72.5t-28 52t-61 22.5z" />
<glyph unicode="q" horiz-adv-x="567" d="M261 -250v98q35 7 79 9q-3 118 -2 140q-35 -7 -69 -7q-231 0 -231 260t231 260q36 0 128 -5t147 -5v-98q-38 -7 -76 -9v-535l76 -5v-103h-283zM338 106v286q-37 5 -69 5q-102 0 -102 -147t102 -147q40 0 69 3z" />
<glyph unicode="r" horiz-adv-x="504" d="M34 0v98q41 8 85 9q-5 122 -5 230v56l-77 9v98h185q7 -33 9 -40q13 18 43 34t58 16q37 0 74 -4t56 -8l19 -5v-178h-99q-6 37 -8 80q-36 2 -42 2q-88 0 -88 -127v-162l90 -5v-103h-300z" />
<glyph unicode="s" horiz-adv-x="486" d="M51 183h92q6 -40 8 -67q59 -13 95 -13q75 0 75 44q0 39 -75 44q-205 13 -205 161q0 78 48.5 118t156.5 40q45 0 89 -8t65 -16l21 -8v-160h-98q-6 30 -9 69q-46 10 -68 10q-75 0 -75 -45q0 -37 75 -43q205 -13 205 -162q0 -157 -205 -157q-48 0 -97 8.5t-73 17.5l-25 9 v158z" />
<glyph unicode="t" horiz-adv-x="362" d="M14 397v103q40 7 82 10q0 48 2.5 108t5.5 96l2 36h125q-5 -133 -5 -240l105 -10v-103h-105v-54q0 -158 16.5 -201.5t88.5 -43.5v-108q-42 0 -74 4t-56.5 15.5t-41.5 24t-29 37.5t-18.5 47.5t-10 62t-4.5 73.5t-1 89v54h-82z" />
<glyph unicode="u" horiz-adv-x="647" d="M610 0h-185q-7 33 -9 40q-13 -18 -44.5 -34t-58.5 -16q-61 0 -104 18.5t-65 43t-34 64.5t-14.5 67.5t-2.5 66.5q0 29 4 143l-84 9v98h287v-103q-39 -5 -77 -5v-142q0 -33 3 -55.5t11.5 -45.5t27.5 -34.5t48 -11.5q90 0 90 127v162l-77 5v103h287v-98q-39 -7 -85 -9 q5 -122 5 -226q0 -40 -1 -60l78 -9v-98z" />
<glyph unicode="v" horiz-adv-x="619" d="M9 500h287v-103q-36 -5 -73 -5q36 -138 86 -266q53 132 85 266l-71 5v103h286v-98q-40 -7 -84 -9q-40 -161 -142 -386q-25 -12 -74 -12q-21 0 -39.5 3t-26.5 6l-8 3q-99 219 -142 386l-84 9v98z" />
<glyph unicode="w" horiz-adv-x="899" d="M9 500h280v-103q-30 -5 -67 -5q50 -177 82 -266q48 130 80 266q-16 0 -34 2.5t-28 5.5l-9 2v98h273v-98q-35 -10 -73 -10q37 -145 81 -266q38 102 82 266l-66 5v103h279v-98q-43 -7 -82 -9q-51 -191 -139 -386q-25 -12 -74 -12q-21 0 -39.5 3t-26.5 6l-7 3 q-36 90 -72 184q-41 -108 -71 -184q-25 -12 -74 -12q-21 0 -39.5 3t-26.5 6l-8 3q-92 206 -138 386l-83 9v98z" />
<glyph unicode="x" horiz-adv-x="580" d="M28 0v98q27 9 53 9q59 71 131 143q-72 72 -131 143q-12 0 -25 2.5t-20 4.5l-8 2v98h240v-103q-19 -5 -32 -5q41 -44 54 -52q17 11 53 52l-31 5v103h240v-98q-27 -8 -53 -9q-65 -79 -132 -143q67 -64 132 -143q12 0 25 -2.5t20 -4.5l8 -2v-98h-240v103q19 5 31 5 q-34 39 -53 51q-15 -10 -54 -51l32 -5v-103h-240z" />
<glyph unicode="y" horiz-adv-x="631" d="M139 -99h87q8 -26 10 -51q38 -4 76 -4q89 0 89 154q-50 -10 -89 -10q-50 0 -88 12t-61 34t-38 46t-22 56.5t-9 57t-2 54.5q0 15 2 65t2 78l-84 9v98h287v-103q-38 -5 -77 -5v-142q0 -68 18.5 -107.5t71.5 -39.5q46 0 68 36t22 91v162l-76 5v103h286v-98q-45 -7 -85 -9 q5 -125 5 -234q0 -91 -4.5 -152.5t-18 -116t-38 -85t-63.5 -48t-96 -17.5q-38 0 -81.5 3t-67.5 7l-24 3v148z" />
<glyph unicode="z" horiz-adv-x="503" d="M463 163v-163q-117 -10 -207 -10q-40 0 -95.5 2.5t-91.5 5.5l-36 2q27 52 64.5 116.5t58.5 98t68 106.5t49 76h-20q-42 0 -110 -2l-8 -68h-99v173q134 10 217 10q40 0 96 -2.5t91 -5.5l36 -2q-27 -52 -64.5 -116.5t-59 -99t-67.5 -106t-48 -75.5h19q64 0 113 3l9 57h85z " />
<glyph unicode="{" horiz-adv-x="340" d="M15 253v94h20q31 0 45.5 37t14.5 126q0 99 20 150t63.5 70.5t126.5 19.5v-110q-59 0 -70 -28.5t-11 -157.5v-18q0 -86 -46 -136q46 -49 46 -136v-18q0 -129 11 -157.5t70 -28.5v-110q-83 0 -126.5 19.5t-63.5 70.5t-20 150q0 90 -14.5 126.5t-45.5 36.5h-20z" />
<glyph unicode="|" horiz-adv-x="281" d="M75 -250v1000h131v-1000h-131z" />
<glyph unicode="}" horiz-adv-x="339" d="M325 253h-20q-31 0 -45.5 -36.5t-14.5 -126.5q0 -99 -20 -150t-63.5 -70.5t-126.5 -19.5v110q59 0 70.5 28.5t11.5 157.5v6v5.5v6.5q0 88 45 136q-45 49 -45 136v18q0 127 -10 153q-10 29 -49 32q-9 1 -23 1v110q83 0 126.5 -19.5t63.5 -70.5t20 -150q0 -89 14.5 -126 t45.5 -37h20v-94z" />
<glyph unicode="~" horiz-adv-x="535" d="M151 237h-115v8.5t3 21.5t7.5 30.5t15.5 32t26 30.5t39.5 21.5t55.5 8.5q35 0 63.5 -13.5t43 -30t32.5 -30t34 -13.5q12 0 20 10t10 20l2 10h115v-8.5t-3 -21.5t-7.5 -30.5t-15.5 -32t-26 -30.5t-39.5 -21.5t-55.5 -8.5q-35 0 -63.5 13.5t-43 30t-32.5 30t-34 13.5 q-12 0 -20 -10t-10 -20z" />
<glyph unicode="&#xa1;" horiz-adv-x="276" d="M75 308h130v-160q0 -59 -2.5 -146.5t-4.5 -145.5l-3 -58h-125q5 217 5 350v160zM215 435q0 -31 -22 -53t-53 -22t-53 22t-22 53t22 53t53 22t53 -22t22 -53z" />
<glyph unicode="&#xa2;" horiz-adv-x="492" d="M440 157v-142q-53 -14 -112 -21l-5 -107h-113q0 25 -1 59t-1 49q-172 30 -172 255t174 255l5 108h113q0 -24 1 -58.5t1 -48.5q29 -4 56.5 -11t40.5 -12l13 -5v-160h-99q-6 37 -8 76h-13l-54 3q-100 0 -100 -147t102 -147q27 0 68 3h11h-1l9 51h85z" />
<glyph unicode="&#xa3;" horiz-adv-x="643" d="M592 190v-190q-143 -10 -276 -10q-45 0 -120 5t-94 5h-63v98q40 8 68 10q39 3 70.5 46.5t31.5 135.5h-140v110q77 10 140 10q0 159 50 229.5t173 70.5q27 0 62 -2.5t56 -5.5l22 -2v-187h-105q-6 42 -8 82h-14h-13q-51 0 -72 -40.5t-21 -144.5q34 0 78 -2.5t71 -5.5l27 -2 v-110h-176q0 -35 -5.5 -66.5t-13.5 -51t-16.5 -34.5t-13.5 -22l-6 -6h90q72 2 105 4l8 76h105z" />
<glyph unicode="&#xa4;" horiz-adv-x="658" d="M136 -20l-97 97l76 76q-23 54 -23 137t23 136l-76 77l97 97l79 -81q47 18 114 18q69 0 112 -18l81 81l97 -97l-78 -77q25 -52 25 -136q0 -83 -25 -137l78 -76l-97 -97l-81 80q-49 -17 -112 -17q-61 0 -114 17zM329 150q107 0 107 140t-107 140t-107 -140t107 -140z" />
<glyph unicode="&#xa5;" horiz-adv-x="703" d="M196 0v105q39 7 85 9q1 23 2 43q-38 0 -83.5 2.5t-71.5 4.5l-27 3v110h186q-1 1 -1 6l-40 64h-145v109q34 4 76 7q-41 78 -61 123l-80 9v105h300v-110q-46 -5 -79 -5q47 -104 94 -183q47 77 95 183l-80 5v110h300v-105q-40 -7 -79 -9q-11 -23 -33.5 -67t-28.5 -56l76 -7 v-109h-145q-24 -39 -40 -64v-3l1 -3h184v-110q-10 -1 -28 -3t-67 -4.5t-92 -2.5q0 -4 -0.5 -17t-0.5 -25l83 -5v-110h-300z" />
<glyph unicode="&#xa6;" horiz-adv-x="285" d="M77 -250v430h131v-430h-131zM77 320v430h131v-430h-131z" />
<glyph unicode="&#xa7;" horiz-adv-x="515" d="M70 180h92q6 -34 9 -72l24 -1q50 -4 64 -4q44 0 61 8t17 29q0 27 -78 39q-107 11 -158 56t-51 115q0 71 44 107q-44 39 -44 103q0 77 49.5 113.5t159.5 36.5q27 0 54.5 -2.5t48.5 -6t37 -7t26.5 -6.5t11.5 -3v-160h-98q-6 30 -9 66l-56 6h-15q-44 0 -61.5 -8t-17.5 -29 q0 -27 79 -39q107 -11 157.5 -56t50.5 -115q0 -71 -43 -107q43 -39 43 -103q0 -77 -49 -113.5t-159 -36.5q-45 0 -92.5 7.5t-72.5 14.5l-24 8v160zM289 295q25 6 36.5 18.5t11.5 36.5q0 42 -108 55q-26 -6 -37.5 -18.5t-11.5 -36.5q0 -22 25.5 -35t83.5 -20z" />
<glyph unicode="&#xa8;" horiz-adv-x="420" d="M40 650q0 31 22 53t53 22t53 -22t22 -53t-22 -53t-53 -22t-53 22t-22 53zM230 650q0 31 22 53t53 22t53 -22t22 -53t-22 -53t-53 -22t-53 22t-22 53z" />
<glyph unicode="&#xa9;" d="M40 350q0 129 80 218t227 89t227 -89t80 -218t-80 -218t-227 -89t-227 89t-80 218zM157 350q0 -93 49.5 -146.5t140.5 -53.5t140.5 53.5t49.5 146.5t-49.5 146.5t-140.5 53.5t-140.5 -53.5t-49.5 -146.5zM460 372h-85q-6 27 -8 53h-5q-29 0 -44.5 -16.5t-15.5 -58.5 t15.5 -58.5t44.5 -16.5q28 0 52.5 6t35.5 11l10 6v-90q-40 -28 -98 -28q-165 0 -165 170t165 170q24 0 48.5 -7t37.5 -14l12 -7v-120z" />
<glyph unicode="&#xaa;" horiz-adv-x="391" d="M50 580v108q64 22 125 22q45 0 74.5 -13.5t42.5 -40t17.5 -52.5t4.5 -63l-4 -93l48 -6v-72q-34 0 -90 -2.5t-86 -2.5q-150 0 -150 107q0 20 4 35.5t17 34.5t44 29.5t78 10.5l45 -5q0 30 -8 40t-37 10q-11 0 -46 -5l-5 -42h-74zM220 448v50h-45q-48 0 -48 -26 q0 -16 12 -20t36 -4h45z" />
<glyph unicode="&#xab;" horiz-adv-x="578" d="M549 148l-71 -71q-56 40 -109 82.5t-78 64.5l-25 23q-12 11 -12 43q0 14 3 25t6 15l3 3q85 79 212 170l71 -71q-56 -43 -162 -142q-3 3 1 -1l5 -5q88 -83 156 -136zM309 148l-71 -71q-56 40 -109 82.5t-78 64.5l-25 23q-12 11 -12 43q0 14 3 25t6 15l3 3q85 79 212 170 l71 -71q-56 -43 -162 -142q-3 3 1 -1l5 -5q88 -83 156 -136z" />
<glyph unicode="&#xac;" horiz-adv-x="594" d="M51 230v120h480v-230h-114q-7 53 -10 110h-356z" />
<glyph unicode="&#xad;" horiz-adv-x="347" d="M54 230v120h240v-120h-240z" />
<glyph unicode="&#xae;" horiz-adv-x="463" d="M35 540q0 86 53.5 141.5t143.5 55.5q89 0 142.5 -55.5t53.5 -141.5t-53.5 -141.5t-142.5 -55.5q-90 0 -143.5 55.5t-53.5 141.5zM105 540q0 -127 127 -127q126 0 126 127t-126 127q-127 0 -127 -127zM142 447v35q10 3 22 4l-1 52v1q0 35 1 55l-22 4v36h26q14 0 36 1.5 t31 1.5q79 0 79 -61q0 -37 -32 -52q17 -29 21 -38l24 -4v-35h-63q-4 8 -13 25t-22 43h-8l1 -29l21 -5v-34h-101zM221 564h26q11 0 11 12q0 5 -4 8t-7 3h-26v-23z" />
<glyph unicode="&#xaf;" horiz-adv-x="353" d="M40 577v106h273v-106h-273z" />
<glyph unicode="&#xb0;" horiz-adv-x="345" d="M26 563q0 67 39.5 107t106.5 40t107 -40t40 -107q0 -66 -40 -106t-107 -40t-106.5 40t-39.5 106zM132 563q0 -17 11.5 -28.5t28.5 -11.5q18 0 29 11.5t11 28.5q0 18 -11 29t-29 11q-17 0 -28.5 -11t-11.5 -29z" />
<glyph unicode="&#xb1;" horiz-adv-x="595" d="M48 340v120h185l5 180h120v-180h190v-120h-190v-180h-120q-5 76 -5 180h-185zM48 0v120h500v-120h-500z" />
<glyph unicode="&#xb2;" horiz-adv-x="357" d="M310 504v-134q-75 -6 -140 -6q-31 0 -61 1.5t-45 2.5l-15 2q-6 54 -6 117q0 49 28.5 82.5t91.5 39.5q18 1 34 8.5t16 17.5q0 25 -41 25q-26 0 -31 -1l-3 -39h-91v112q47 28 125 28q79 0 113.5 -36.5t34.5 -88.5q0 -49 -36.5 -87.5t-107.5 -44.5q-12 -1 -18.5 -6.5 t-7.5 -10.5v-6v-17h35q23 0 30 1l4 40h91z" />
<glyph unicode="&#xb3;" horiz-adv-x="344" d="M42 502h90q4 -20 5 -38q7 -1 20 -1q41 0 41 21q0 8 -1.5 13t-11.5 9.5t-30 5.5l-68 5v90h68q18 0 30.5 8.5t12.5 19.5q0 25 -41 25q-7 0 -16 -1l-5 -39h-91v112q35 28 112 28q79 0 113.5 -35.5t34.5 -89.5q0 -40 -42 -72q16 -11 29 -36t13 -43q0 -51 -34.5 -85.5 t-113.5 -34.5q-31 0 -60 7t-42 13l-13 7v111z" />
<glyph unicode="&#xb4;" horiz-adv-x="316" d="M112 555l-72 72q67 56 153 143l83 -83q-38 -39 -79 -72t-63 -47z" />
<glyph unicode="&#xb5;" horiz-adv-x="689" d="M633 0h-185q-7 33 -8 40q-14 -18 -45 -34t-59 -16q-72 0 -95 10l5 -160h-120q-10 258 -10 410q0 15 2 65t2 78l-84 9v98h287v-103q-38 -5 -77 -5v-142q0 -29 1 -45t5.5 -38.5t13.5 -34t27 -20.5t43 -9q90 0 90 127v162l-76 5v103h286v-98q-38 -7 -85 -9q5 -122 5 -226 q0 -50 -1 -60l78 -9v-98z" />
<glyph unicode="&#xb6;" horiz-adv-x="636" d="M591 700v-98q-35 -6 -74 -9q-3 -116 -3 -243l5 -350h-125q-10 200 -10 330q0 179 4 260h-45l-1 -16q0 -15 -0.5 -29t-1 -40t-1 -51t-1 -58.5t-0.5 -65.5l5 -330h-125q-1 17 -3 45t-4.5 101t-2.5 128q-80 21 -125 85t-45 134q0 217 246 217q59 0 134.5 -5t102.5 -5h70z M208 392q1 123 17 192q-30 -9 -44 -39.5t-14 -61.5q0 -25 11 -51t30 -40z" />
<glyph unicode="&#xb7;" horiz-adv-x="228" d="M39 290q0 31 22 53t53 22t53 -22t22 -53t-22 -53t-53 -22t-53 22t-22 53z" />
<glyph unicode="&#xb8;" horiz-adv-x="330" d="M40 -229v96q51 -9 88 -16q7 -1 23 -7q34 -4 34 19q0 6 -2 9t-8.5 4.5t-11 1.5h-16.5h-9h-68q7 37 14.5 67.5t11.5 42.5l4 12h116l-23 -32v-1q38 0 67.5 -27.5t29.5 -76.5q0 -50 -42 -83t-88 -33q-28 0 -58 6t-46 12z" />
<glyph unicode="&#xb9;" horiz-adv-x="276" d="M44 370v91q25 5 52 6q-2 48 -2 96q0 26 3 77q-22 -5 -56 -5v92q18 0 34.5 6.5t24.5 13.5l8 7h98q-3 -122 -3 -191q0 -46 3 -96l38 -4v-93h-200z" />
<glyph unicode="&#xba;" horiz-adv-x="367" d="M184 448q58 0 58 89q0 90 -58 90q-59 0 -59 -90q0 -89 59 -89zM184 365q-154 0 -154 172q0 173 154 173q153 0 153 -173q0 -172 -153 -172z" />
<glyph unicode="&#xbb;" horiz-adv-x="578" d="M101 77l-72 71q56 43 162 142q3 -3 -1 1l-5 5q-88 83 -156 136l72 71q56 -40 108.5 -82.5t77.5 -64.5l25 -23q12 -11 12 -43q0 -14 -3 -25t-6 -15l-3 -3q-85 -79 -211 -170zM340 77l-71 71q56 43 162 142q3 -3 -1 1l-5 5q-88 83 -156 136l71 71q56 -40 109 -82.5 t78 -64.5l25 -23q12 -11 12 -43q0 -14 -3 -25t-6 -15l-3 -3q-85 -79 -212 -170z" />
<glyph unicode="&#xbc;" horiz-adv-x="841" d="M275 0h-131l360 700h131zM47 316v91q25 5 51 6q-1 24 -1 96q0 26 3 77q-23 -5 -56 -5v92q18 0 34.5 6.5t24.5 13.5l8 7h98q-3 -122 -3 -191q0 -59 3 -96l38 -4v-93h-200zM600 0v92q18 5 45 6v25h-168q2 10 7 40t8 42.5t9.5 41t16 61t23.5 76.5h102q-30 -94 -44 -159h44 l7 159h106q-6 -101 -6 -159h50v-97q-19 -2 -49 -5v-25l49 -4v-94h-200z" />
<glyph unicode="&#xbd;" horiz-adv-x="816" d="M275 0h-131l360 700h131zM47 316v91q25 5 51 6q-1 24 -1 96q0 26 3 77q-23 -5 -56 -5v92q18 0 34.5 6.5t24.5 13.5l8 7h98q-3 -122 -3 -191q0 -59 3 -96l38 -4v-93h-200zM767 134v-134q-75 -6 -140 -6q-31 0 -61 1.5t-45 2.5l-15 2q-6 54 -6 117q0 111 120 122 q18 1 34 8.5t16 17.5q0 25 -42 25q-24 0 -30 -1l-4 -39h-91v112q48 28 125 28q80 0 114.5 -36.5t34.5 -88.5q0 -48 -37 -87t-108 -45q-12 -1 -18 -6.5t-6 -10.5l-1 -6v-17h34q15 -1 31 1l4 40h91z" />
<glyph unicode="&#xbe;" horiz-adv-x="869" d="M303 0h-131l360 700h131zM628 0v92q19 5 45 6v25h-168q2 10 7 40t8 42.5t9.5 41t16 61t23.5 76.5h102q-30 -94 -44 -159h45l6 159h106q-6 -101 -6 -159h50v-97q-19 -2 -49 -5v-25l49 -4v-94h-200zM45 448h90q4 -20 5 -38q7 -1 20 -1q42 0 42 21q0 8 -2 13t-12 9.5 t-30 5.5l-68 5v90h68q18 0 31 8.5t13 19.5q0 25 -42 25q-7 0 -16 -1l-5 -39h-91v112q35 28 112 28q79 0 113.5 -35.5t34.5 -89.5q0 -39 -41 -72q15 -11 28 -36t13 -43q0 -51 -34.5 -85.5t-113.5 -34.5q-31 0 -59.5 7t-42.5 13l-13 7v111z" />
<glyph unicode="&#xbf;" horiz-adv-x="521" d="M499 -2v-160q-9 -6 -27 -14t-75 -22t-117 -14q-140 0 -195.5 50t-55.5 140q0 156 170 212q22 8 32.5 20t12.5 21.5t2 26.5v50h129v-50q0 -61 -28.5 -106.5t-111.5 -76.5q-43 -16 -59.5 -37t-16.5 -60q0 -34 23.5 -52t97.5 -18q78 0 105 4l9 86h105zM385 435 q0 -31 -22 -53t-53 -22t-52.5 22t-21.5 53t21.5 53t52.5 22t53 -22t22 -53z" />
<glyph unicode="&#xc0;" d="M23 0v105q38 6 84 8q-4 108 -4 157q0 206 46 320l-96 5v105q94 0 160 5t138 5q32 0 65 -2.5t50 -5.5l17 -2q40 -39 65.5 -93t35.5 -119t13 -110t3 -108q0 -85 -4 -157l84 -8v-105h-300v110q45 5 90 5v164h-237v-164l90 -5v-110h-300zM232 392h238q-8 126 -44 200h-150 q-38 -78 -44 -200zM443 827l-72 -72q-78 45 -165 132l84 83q38 -39 76.5 -74.5t57.5 -51.5z" />
<glyph unicode="&#xc1;" d="M23 0v105q38 6 84 8q-4 108 -4 157q0 206 46 320l-96 5v105q94 0 160 5t138 5q32 0 65 -2.5t50 -5.5l17 -2q40 -39 65.5 -93t35.5 -119t13 -110t3 -108q0 -85 -4 -157l84 -8v-105h-300v110q45 5 90 5v164h-237v-164l90 -5v-110h-300zM232 392h238q-8 126 -44 200h-150 q-38 -78 -44 -200zM335 755l-72 72q67 56 153 143l84 -83q-39 -39 -80 -72t-63 -47z" />
<glyph unicode="&#xc2;" d="M23 0v105q38 6 84 8q-4 108 -4 157q0 206 46 320l-96 5v105q94 0 160 5t138 5q32 0 65 -2.5t50 -5.5l17 -2q40 -39 65.5 -93t35.5 -119t13 -110t3 -108q0 -85 -4 -157l84 -8v-105h-300v110q45 5 90 5v164h-237v-164l90 -5v-110h-300zM232 392h238q-8 126 -44 200h-150 q-38 -78 -44 -200zM270 755l-72 72q57 66 153 143q43 -34 81.5 -70t55.5 -54l17 -19l-72 -72q-38 37 -82 73z" />
<glyph unicode="&#xc3;" d="M23 0v105q38 6 84 8q-4 108 -4 157q0 206 46 320l-96 5v105q94 0 160 5t138 5q32 0 65 -2.5t50 -5.5l17 -2q40 -39 65.5 -93t35.5 -119t13 -110t3 -108q0 -85 -4 -157l84 -8v-105h-300v110q45 5 90 5v164h-237v-164l90 -5v-110h-300zM232 392h238q-8 126 -44 200h-150 q-38 -78 -44 -200zM296 790h-95q0 65 28.5 97.5t68.5 32.5q24 0 54 -17t39 -17q11 0 14 13q1 5 1 11h95q0 -65 -28.5 -97.5t-67.5 -32.5q-25 0 -55 16.5t-39 16.5q-11 0 -14 -14q-1 -4 -1 -9z" />
<glyph unicode="&#xc4;" d="M23 0v105q38 6 84 8q-4 108 -4 157q0 206 46 320l-96 5v105q94 0 160 5t138 5q32 0 65 -2.5t50 -5.5l17 -2q40 -39 65.5 -93t35.5 -119t13 -110t3 -108q0 -85 -4 -157l84 -8v-105h-300v110q45 5 90 5v164h-237v-164l90 -5v-110h-300zM232 392h238q-8 126 -44 200h-150 q-38 -78 -44 -200zM181 850q0 31 22 53t53 22t53 -22t22 -53t-22 -53t-53 -22t-53 22t-22 53zM371 850q0 31 22 53t53 22t53 -22t22 -53t-22 -53t-53 -22t-53 22t-22 53z" />
<glyph unicode="&#xc5;" d="M23 0v105q38 6 84 8q-4 108 -4 157q0 206 46 320l-96 5v105q94 0 160 5t138 5q32 0 65 -2.5t50 -5.5l17 -2q40 -39 65.5 -93t35.5 -119t13 -110t3 -108q0 -85 -4 -157l84 -8v-105h-300v110q45 5 90 5v164h-237v-164l90 -5v-110h-300zM232 392h238q-8 126 -44 200h-150 q-38 -78 -44 -200zM351 755q-45 0 -77.5 33t-32.5 79q0 45 32.5 78t77.5 33t77.5 -33t32.5 -78q0 -46 -32 -79t-78 -33zM351 843q10 0 16 7t6 17q0 9 -6.5 16t-15.5 7t-15 -7t-6 -16q0 -10 6 -17t15 -7z" />
<glyph unicode="&#xc6;" horiz-adv-x="949" d="M26 0v105q38 6 84 8q-4 108 -4 157q0 79 1 118.5t10 100.5t28 101l-89 5v105q98 0 175.5 5t144.5 5h310q40 0 95 -2.5t90 -5.5l35 -2v-187h-105q-6 32 -9 76q-37 1 -106 1h-100v-183h163l8 66h99v-246h-99q-7 28 -8 66h-163v-178q69 -5 100 -5q87 0 105 1l10 75h105v-186 q-109 -10 -220 -10q-53 0 -159 5t-161 5v110q45 5 90 5v178h-221v-178l90 -5v-110h-299zM456 407q0 103 4 183h-188q-31 -56 -37 -183h221z" />
<glyph unicode="&#xc7;" horiz-adv-x="593" d="M223 -229v96q88 -19 126 -19q19 0 19 15q0 5 -4 10t-13 5h-98q15 75 27 117q-237 36 -237 355q0 48 5.5 90.5t24.5 94.5t50 88.5t88 61.5t133 25q56 0 106.5 -9.5t73.5 -18.5l22 -10v-167h-105q-7 41 -9 80q-37 5 -88 5q-63 0 -102.5 -35.5t-54 -86.5t-14.5 -118 t14.5 -118t54 -86.5t102.5 -35.5q51 0 99 13q1 20 3.5 37.5t4.5 25.5l2 7h93v-165q-58 -27 -153 -35l-17 -25v-1q38 0 67.5 -27.5t29.5 -76.5q0 -51 -41.5 -83.5t-88.5 -32.5q-28 0 -58 6t-46 12z" />
<glyph unicode="&#xc8;" horiz-adv-x="605" d="M39 0v105q38 7 84 9q-4 101 -4 236q0 134 4 237l-84 8v105q59 0 153 5t150 5q41 0 96 -2.5t90 -5.5l34 -2v-187h-105q-6 29 -9 73q-74 4 -106 4l-94 -5v-178h157l9 70h98v-254h-98q-7 32 -9 70h-157l5 -178q58 -5 89 -5q69 0 105 4l10 72h105v-186q-128 -10 -220 -10 q-57 0 -151 5t-152 5zM414 827l-72 -72q-78 45 -165 132l83 83q39 -39 77.5 -74.5t57.5 -51.5z" />
<glyph unicode="&#xc9;" horiz-adv-x="605" d="M39 0v105q38 7 84 9q-4 101 -4 236q0 134 4 237l-84 8v105q59 0 153 5t150 5q41 0 96 -2.5t90 -5.5l34 -2v-187h-105q-6 29 -9 73q-74 4 -106 4l-94 -5v-178h157l9 70h98v-254h-98q-7 32 -9 70h-157l5 -178q58 -5 89 -5q69 0 105 4l10 72h105v-186q-128 -10 -220 -10 q-57 0 -151 5t-152 5zM305 755l-71 72q66 56 153 143l83 -83q-38 -39 -79.5 -72t-63.5 -47z" />
<glyph unicode="&#xca;" horiz-adv-x="605" d="M39 0v105q38 7 84 9q-4 101 -4 236q0 134 4 237l-84 8v105q59 0 153 5t150 5q41 0 96 -2.5t90 -5.5l34 -2v-187h-105q-6 29 -9 73q-74 4 -106 4l-94 -5v-178h157l9 70h98v-254h-98q-7 32 -9 70h-157l5 -178q58 -5 89 -5q69 0 105 4l10 72h105v-186q-128 -10 -220 -10 q-57 0 -151 5t-152 5zM240 755l-71 72q56 66 153 143q43 -34 81.5 -70t54.5 -54l17 -19l-71 -72q-39 37 -82 73z" />
<glyph unicode="&#xcb;" horiz-adv-x="605" d="M39 0v105q38 7 84 9q-4 101 -4 236q0 134 4 237l-84 8v105q59 0 153 5t150 5q41 0 96 -2.5t90 -5.5l34 -2v-187h-105q-6 29 -9 73q-74 4 -106 4l-94 -5v-178h157l9 70h98v-254h-98q-7 32 -9 70h-157l5 -178q58 -5 89 -5q69 0 105 4l10 72h105v-186q-128 -10 -220 -10 q-57 0 -151 5t-152 5zM152 850q0 31 22 53t53 22t53 -22t22 -53t-22 -53t-53 -22t-53 22t-22 53zM342 850q0 31 22 53t53 22t53 -22t22 -53t-22 -53t-53 -22t-53 22t-22 53z" />
<glyph unicode="&#xcc;" horiz-adv-x="374" d="M39 0v105q38 7 84 9q-4 101 -4 236q0 134 4 237l-84 8v105h299v-110q-45 -5 -87 -5q-3 -114 -3 -235t3 -235l87 -5v-110h-299zM280 827l-71 -72q-79 45 -165 132l83 83q38 -39 76.5 -74.5t57.5 -51.5z" />
<glyph unicode="&#xcd;" horiz-adv-x="374" d="M39 0v105q38 7 84 9q-4 101 -4 236q0 134 4 237l-84 8v105h299v-110q-45 -5 -87 -5q-3 -114 -3 -235t3 -235l87 -5v-110h-299zM172 755l-72 72q67 56 154 143l83 -83q-39 -39 -80 -72t-63 -47z" />
<glyph unicode="&#xce;" horiz-adv-x="374" d="M39 0v105q38 7 84 9q-4 101 -4 236q0 134 4 237l-84 8v105h299v-110q-45 -5 -87 -5q-3 -114 -3 -235t3 -235l87 -5v-110h-299zM107 755l-72 72q57 66 154 143q43 -34 81 -70t55 -54l17 -19l-72 -72q-38 37 -81 73z" />
<glyph unicode="&#xcf;" horiz-adv-x="374" d="M39 0v105q38 7 84 9q-4 101 -4 236q0 134 4 237l-84 8v105h299v-110q-45 -5 -87 -5q-3 -114 -3 -235t3 -235l87 -5v-110h-299zM19 850q0 31 22 53t53 22t53 -22t22 -53t-22 -53t-53 -22t-53 22t-22 53zM209 850q0 31 22 53t53 22t52.5 -22t21.5 -53t-21.5 -53t-52.5 -22 t-53 22t-22 53z" />
<glyph unicode="&#xd0;" horiz-adv-x="666" d="M42 0v105q39 7 84 9q-4 79 -4 179q-20 1 -42.5 3.5t-35.5 5.5l-12 2v93q46 9 90 11q0 99 4 179l-84 8v105q67 0 157 5t146 5q63 0 110.5 -15.5t76.5 -45.5t47.5 -62.5t26.5 -78.5t10.5 -79.5t2.5 -78.5q0 -39 -1.5 -68t-7.5 -68.5t-17 -68.5t-31.5 -60t-48.5 -50.5 t-71 -32t-97 -12.5q-57 0 -150.5 5t-152.5 5zM342 407v-104q-46 -8 -90 -10l4 -178q46 -5 89 -5q46 0 76 19t44 56t19 74.5t5 90.5t-5 90.5t-19 74.5t-44 56t-76 19l-93 -5v-178h90z" />
<glyph unicode="&#xd1;" horiz-adv-x="742" d="M39 0v105q38 7 84 9q-4 101 -4 236q0 134 4 237l-84 8v105h249q209 -453 217 -494v144q0 83 -2 235l-88 5v110h300v-105q-38 -6 -85 -8q5 -128 5 -237q0 -61 -2.5 -148.5t-4.5 -144.5l-3 -57h-153q-2 6 -48 104.5t-101 217.5t-75 170v-142q0 -121 3 -235l87 -5v-110h-299 zM310 790h-95q0 65 28.5 97.5t68.5 32.5q24 0 54 -17t39 -17q11 0 14 13q1 5 1 11h95q0 -65 -28.5 -97.5t-67.5 -32.5q-25 0 -55 16.5t-39 16.5q-11 0 -14 -14q-1 -4 -1 -9z" />
<glyph unicode="&#xd2;" horiz-adv-x="669" d="M335 -10q-292 0 -292 360t292 360q291 0 291 -360t-291 -360zM335 110q161 0 161 240t-161 240q-162 0 -162 -240t162 -240zM426 827l-71 -72q-79 45 -165 132l83 83q38 -39 76.5 -74.5t57.5 -51.5z" />
<glyph unicode="&#xd3;" horiz-adv-x="669" d="M335 -10q-292 0 -292 360t292 360q291 0 291 -360t-291 -360zM335 110q161 0 161 240t-161 240q-162 0 -162 -240t162 -240zM318 755l-72 72q67 56 154 143l83 -83q-39 -39 -80 -72t-63 -47z" />
<glyph unicode="&#xd4;" horiz-adv-x="669" d="M335 -10q-292 0 -292 360t292 360q291 0 291 -360t-291 -360zM335 110q161 0 161 240t-161 240q-162 0 -162 -240t162 -240zM253 755l-72 72q57 66 154 143q43 -34 81 -70t55 -54l17 -19l-72 -72q-38 37 -81 73z" />
<glyph unicode="&#xd5;" horiz-adv-x="669" d="M335 -10q-292 0 -292 360t292 360q291 0 291 -360t-291 -360zM335 110q161 0 161 240t-161 240q-162 0 -162 -240t162 -240zM279 790h-94q0 65 28.5 97.5t67.5 32.5q25 0 55 -17t39 -17q10 0 14 13q1 5 1 11h95q0 -65 -28.5 -97.5t-68.5 -32.5q-24 0 -54 16.5t-39 16.5 q-12 0 -15 -14z" />
<glyph unicode="&#xd6;" horiz-adv-x="669" d="M335 -10q-292 0 -292 360t292 360q291 0 291 -360t-291 -360zM335 110q161 0 161 240t-161 240q-162 0 -162 -240t162 -240zM165 850q0 31 22 53t53 22t53 -22t22 -53t-22 -53t-53 -22t-53 22t-22 53zM355 850q0 31 22 53t53 22t52.5 -22t21.5 -53t-21.5 -53t-52.5 -22 t-53 22t-22 53z" />
<glyph unicode="&#xd7;" horiz-adv-x="573" d="M118 38l-83 84l168 168l-168 168l83 84l168 -169l169 169l83 -84l-169 -168l169 -168l-83 -84l-169 169z" />
<glyph unicode="&#xd8;" horiz-adv-x="674" d="M19 0l78 108q-52 87 -52 242q0 360 292 360q97 0 166 -41l22 31h130l-78 -109q52 -88 52 -241q0 -360 -292 -360q-100 0 -165 41l-23 -31h-130zM487 467l-241 -332q36 -25 91 -25q162 0 162 240q0 69 -12 117zM187 232l241 332q-39 26 -91 26q-162 0 -162 -240 q0 -69 12 -118z" />
<glyph unicode="&#xd9;" horiz-adv-x="710" d="M12 700h300v-110q-45 -5 -90 -5v-235q0 -37 0.5 -56t3 -49t7 -46t14 -36t23 -29.5t33.5 -16.5t47 -7q31 0 53.5 8.5t36 27t22 37t12 51t4.5 55t1 61.5v235l-90 5v110h313v-105q-39 -6 -97 -8q4 -103 4 -237q0 -60 -4 -105t-20 -96t-42.5 -83.5t-75.5 -54t-117 -21.5 q-42 0 -77 8t-60.5 19.5t-45 33t-32 39.5t-21.5 49t-13 50.5t-6.5 55t-2.5 53v52.5q0 134 4 237l-84 8v105zM442 827l-72 -72q-78 45 -165 132l84 83q38 -39 76.5 -74.5t57.5 -51.5z" />
<glyph unicode="&#xda;" horiz-adv-x="710" d="M12 700h300v-110q-45 -5 -90 -5v-235q0 -37 0.5 -56t3 -49t7 -46t14 -36t23 -29.5t33.5 -16.5t47 -7q31 0 53.5 8.5t36 27t22 37t12 51t4.5 55t1 61.5v235l-90 5v110h313v-105q-39 -6 -97 -8q4 -103 4 -237q0 -60 -4 -105t-20 -96t-42.5 -83.5t-75.5 -54t-117 -21.5 q-42 0 -77 8t-60.5 19.5t-45 33t-32 39.5t-21.5 49t-13 50.5t-6.5 55t-2.5 53v52.5q0 134 4 237l-84 8v105zM334 755l-72 72q67 56 153 143l84 -83q-39 -39 -80 -72t-63 -47z" />
<glyph unicode="&#xdb;" horiz-adv-x="710" d="M12 700h300v-110q-45 -5 -90 -5v-235q0 -37 0.5 -56t3 -49t7 -46t14 -36t23 -29.5t33.5 -16.5t47 -7q31 0 53.5 8.5t36 27t22 37t12 51t4.5 55t1 61.5v235l-90 5v110h313v-105q-39 -6 -97 -8q4 -103 4 -237q0 -60 -4 -105t-20 -96t-42.5 -83.5t-75.5 -54t-117 -21.5 q-42 0 -77 8t-60.5 19.5t-45 33t-32 39.5t-21.5 49t-13 50.5t-6.5 55t-2.5 53v52.5q0 134 4 237l-84 8v105zM269 755l-72 72q57 66 153 143q43 -34 81.5 -70t55.5 -54l17 -19l-72 -72q-38 37 -82 73z" />
<glyph unicode="&#xdc;" horiz-adv-x="710" d="M12 700h300v-110q-45 -5 -90 -5v-235q0 -37 0.5 -56t3 -49t7 -46t14 -36t23 -29.5t33.5 -16.5t47 -7q31 0 53.5 8.5t36 27t22 37t12 51t4.5 55t1 61.5v235l-90 5v110h313v-105q-39 -6 -97 -8q4 -103 4 -237q0 -60 -4 -105t-20 -96t-42.5 -83.5t-75.5 -54t-117 -21.5 q-42 0 -77 8t-60.5 19.5t-45 33t-32 39.5t-21.5 49t-13 50.5t-6.5 55t-2.5 53v52.5q0 134 4 237l-84 8v105zM180 850q0 31 22 53t53 22t53 -22t22 -53t-22 -53t-53 -22t-53 22t-22 53zM370 850q0 31 22 53t53 22t53 -22t22 -53t-22 -53t-53 -22t-53 22t-22 53z" />
<glyph unicode="&#xdd;" horiz-adv-x="645" d="M168 0v105q39 7 84 9q6 83 6 169q-99 154 -171 303l-79 9v105h299v-110q-46 -5 -79 -5q44 -97 95 -183q47 79 94 183l-79 5v110h300v-105q-40 -7 -80 -9q-69 -143 -170 -303q0 -77 -4 -168l84 -5v-110h-300zM306 755l-72 72q67 56 154 143l83 -83q-39 -39 -80 -72 t-63 -47z" />
<glyph unicode="&#xde;" horiz-adv-x="597" d="M39 0v105q38 7 84 9q-4 101 -4 236q0 134 4 237l-84 8v105h299v-110q-45 -5 -87 -5q0 10 -1 0q-2 -22 -2 -47q52 4 109 4q110 0 164 -51t54 -138q0 -188 -218 -188h-108l2 -51v1l87 -5v-110h-299zM248 285h109q51 0 69 18t18 50q0 69 -87 69h-109v-137z" />
<glyph unicode="&#xdf;" horiz-adv-x="702" d="M36 0v105q42 7 86 9q-6 154 -6 236v47h-80v103q65 5 80 5q0 112 60.5 168.5t196.5 56.5q124 0 183.5 -64.5t59.5 -182.5v-86h-97q-66 0 -66 -40q0 -19 13.5 -33t36.5 -15q80 -2 128 -44.5t48 -112.5q0 -75 -46 -118.5t-140 -43.5q-40 0 -80.5 6t-61.5 12l-21 7v158h91 q6 -37 9 -64q30 -6 63 -6q57 0 57 49q0 17 -16.5 27.5t-40.5 11.5q-78 4 -124 45.5t-46 120.5q0 70 38.5 111.5t124.5 41.5q0 49 -31 80.5t-82 31.5q-53 0 -90 -30.5t-37 -94.5v-147q0 -120 3 -237l44 -3v-110h-257z" />
<glyph unicode="&#xe0;" horiz-adv-x="523" d="M64 330v160q96 20 182 20q55 0 93.5 -15.5t58.5 -37.5t31 -60.5t13 -68.5t2 -78q0 -79 -4 -143l71 -9v-98q-62 0 -143 -5t-122 -5q-58 0 -99 11.5t-61.5 26.5t-32 40t-13.5 41.5t-2 41.5q0 22 2 38.5t13.5 41.5t32 41.5t61.5 28.5t99 12l68 -10q0 47 -15.5 70.5 t-52.5 23.5q-53 0 -75 -1l-8 -66h-99zM314 200h-68q-49 0 -64 -13.5t-15 -35.5q0 -14 4 -23t22.5 -17t52.5 -8l68 5v92zM336 627l-72 -72q-78 45 -165 132l84 83q38 -39 76.5 -74.5t57.5 -51.5z" />
<glyph unicode="&#xe1;" horiz-adv-x="523" d="M64 330v160q96 20 182 20q55 0 93.5 -15.5t58.5 -37.5t31 -60.5t13 -68.5t2 -78q0 -79 -4 -143l71 -9v-98q-62 0 -143 -5t-122 -5q-58 0 -99 11.5t-61.5 26.5t-32 40t-13.5 41.5t-2 41.5q0 22 2 38.5t13.5 41.5t32 41.5t61.5 28.5t99 12l68 -10q0 47 -15.5 70.5 t-52.5 23.5q-53 0 -75 -1l-8 -66h-99zM314 200h-68q-49 0 -64 -13.5t-15 -35.5q0 -14 4 -23t22.5 -17t52.5 -8l68 5v92zM228 555l-72 72q67 56 153 143l84 -83q-39 -39 -80 -72t-63 -47z" />
<glyph unicode="&#xe2;" horiz-adv-x="523" d="M64 330v160q96 20 182 20q55 0 93.5 -15.5t58.5 -37.5t31 -60.5t13 -68.5t2 -78q0 -79 -4 -143l71 -9v-98q-62 0 -143 -5t-122 -5q-58 0 -99 11.5t-61.5 26.5t-32 40t-13.5 41.5t-2 41.5q0 22 2 38.5t13.5 41.5t32 41.5t61.5 28.5t99 12l68 -10q0 47 -15.5 70.5 t-52.5 23.5q-53 0 -75 -1l-8 -66h-99zM314 200h-68q-49 0 -64 -13.5t-15 -35.5q0 -14 4 -23t22.5 -17t52.5 -8l68 5v92zM163 555l-72 72q57 66 153 143q43 -34 81.5 -70t55.5 -54l17 -19l-72 -72q-38 37 -82 73z" />
<glyph unicode="&#xe3;" horiz-adv-x="523" d="M64 330v160q96 20 182 20q55 0 93.5 -15.5t58.5 -37.5t31 -60.5t13 -68.5t2 -78q0 -79 -4 -143l71 -9v-98q-62 0 -143 -5t-122 -5q-58 0 -99 11.5t-61.5 26.5t-32 40t-13.5 41.5t-2 41.5q0 22 2 38.5t13.5 41.5t32 41.5t61.5 28.5t99 12l68 -10q0 47 -15.5 70.5 t-52.5 23.5q-53 0 -75 -1l-8 -66h-99zM314 200h-68q-49 0 -64 -13.5t-15 -35.5q0 -14 4 -23t22.5 -17t52.5 -8l68 5v92zM189 590h-95q0 65 28.5 97.5t68.5 32.5q24 0 54 -17t39 -17q11 0 14 13q1 5 1 11h95q0 -65 -28.5 -97.5t-67.5 -32.5q-24 0 -54 16.5t-40 16.5 q-11 0 -14 -14q-1 -4 -1 -9z" />
<glyph unicode="&#xe4;" horiz-adv-x="523" d="M64 330v160q96 20 182 20q55 0 93.5 -15.5t58.5 -37.5t31 -60.5t13 -68.5t2 -78q0 -79 -4 -143l71 -9v-98q-62 0 -143 -5t-122 -5q-58 0 -99 11.5t-61.5 26.5t-32 40t-13.5 41.5t-2 41.5q0 22 2 38.5t13.5 41.5t32 41.5t61.5 28.5t99 12l68 -10q0 47 -15.5 70.5 t-52.5 23.5q-53 0 -75 -1l-8 -66h-99zM314 200h-68q-49 0 -64 -13.5t-15 -35.5q0 -14 4 -23t22.5 -17t52.5 -8l68 5v92zM74 650q0 31 22 53t53 22t53 -22t22 -53t-22 -53t-53 -22t-53 22t-22 53zM264 650q0 31 22 53t53 22t53 -22t22 -53t-22 -53t-53 -22t-53 22t-22 53z " />
<glyph unicode="&#xe5;" horiz-adv-x="523" d="M64 330v160q96 20 182 20q55 0 93.5 -15.5t58.5 -37.5t31 -60.5t13 -68.5t2 -78q0 -79 -4 -143l71 -9v-98q-62 0 -143 -5t-122 -5q-58 0 -99 11.5t-61.5 26.5t-32 40t-13.5 41.5t-2 41.5q0 22 2 38.5t13.5 41.5t32 41.5t61.5 28.5t99 12l68 -10q0 47 -15.5 70.5 t-52.5 23.5q-53 0 -75 -1l-8 -66h-99zM314 200h-68q-49 0 -64 -13.5t-15 -35.5q0 -14 4 -23t22.5 -17t52.5 -8l68 5v92zM244 555q-45 0 -77.5 33t-32.5 79q0 45 32.5 78t77.5 33t77.5 -33t32.5 -78q0 -46 -32 -79t-78 -33zM244 643q10 0 16 7t6 17q0 9 -6.5 16t-15.5 7 t-15 -7t-6 -16q0 -10 6 -17t15 -7z" />
<glyph unicode="&#xe6;" horiz-adv-x="763" d="M708 145v-130q-87 -25 -175 -25q-63 0 -119 28l-6 -18q-67 -10 -162 -10q-58 0 -99 11.5t-61.5 26.5t-32 40t-13.5 41.5t-2 41.5q0 22 2 38.5t13.5 41.5t32 41.5t61.5 28.5t99 12l68 -10q0 47 -15.5 70.5t-52.5 23.5q-53 0 -75 -1l-8 -66h-99v160q96 20 182 20 q89 0 138 -35q52 35 149 35q51 0 89 -12t58 -29.5t32.5 -41t15.5 -42t3 -37.5t-3 -37t-15.5 -42t-32.5 -41t-58 -29t-89 -12q-20 0 -42 2.5t-35 4.5l-12 3q0 -94 89 -94q63 0 86 3q0 8 2.5 18t4.5 16l2 5h80zM314 200h-68q-49 0 -64 -13.5t-15 -35.5q0 -14 4 -23t22.5 -17 t52.5 -8l68 5v92zM444 300h89q43 0 55.5 12t12.5 36q0 16 -3 25t-19 16.5t-46 7.5q-47 0 -68 -21.5t-21 -75.5z" />
<glyph unicode="&#xe7;" horiz-adv-x="487" d="M142 -229v96q89 -19 127 -19q18 0 18 15t-16 15h-99q14 69 29 119q-94 19 -128 83.5t-34 169.5q0 40 3.5 71t17 68.5t37.5 62t68 41.5t104 17q44 0 87.5 -8t64.5 -16l21 -8v-160h-98q-6 37 -9 76h-12q-36 3 -54 3q-100 0 -100 -147t102 -147q25 0 68 3h15q0 8 2 18t4 16 l2 5h80v-130q-60 -17 -128 -22l-18 -25v-1q38 0 67 -27.5t29 -76.5q0 -38 -24.5 -67.5t-57.5 -42.5q-13 -6 -31 -9q-32 -1 -66.5 6t-52.5 14z" />
<glyph unicode="&#xe8;" horiz-adv-x="487" d="M432 145v-130q-87 -25 -175 -25q-54 0 -93.5 14.5t-63 38t-38 59t-19 70t-4.5 78.5q0 63 8.5 106t31 80.5t67 55.5t111.5 18q63 0 106 -17t61 -45t24.5 -51t6.5 -49q0 -25 -6.5 -48t-24.5 -51t-61 -45t-106 -17q-20 0 -42 2.5t-35 4.5l-12 3q0 -94 89 -94q63 0 86 3 q0 8 2.5 18t4.5 16l2 5h80zM168 300h89q43 0 55.5 12t12.5 36q0 16 -3 25t-19 16.5t-46 7.5q-47 0 -68 -21.5t-21 -75.5zM355 627l-71 -72q-79 45 -165 132l83 83q38 -39 76.5 -74.5t57.5 -51.5z" />
<glyph unicode="&#xe9;" horiz-adv-x="487" d="M432 145v-130q-87 -25 -175 -25q-54 0 -93.5 14.5t-63 38t-38 59t-19 70t-4.5 78.5q0 63 8.5 106t31 80.5t67 55.5t111.5 18q63 0 106 -17t61 -45t24.5 -51t6.5 -49q0 -25 -6.5 -48t-24.5 -51t-61 -45t-106 -17q-20 0 -42 2.5t-35 4.5l-12 3q0 -94 89 -94q63 0 86 3 q0 8 2.5 18t4.5 16l2 5h80zM168 300h89q43 0 55.5 12t12.5 36q0 16 -3 25t-19 16.5t-46 7.5q-47 0 -68 -21.5t-21 -75.5zM247 555l-72 72q67 56 154 143l83 -83q-39 -39 -80 -72t-63 -47z" />
<glyph unicode="&#xea;" horiz-adv-x="487" d="M432 145v-130q-87 -25 -175 -25q-54 0 -93.5 14.5t-63 38t-38 59t-19 70t-4.5 78.5q0 63 8.5 106t31 80.5t67 55.5t111.5 18q63 0 106 -17t61 -45t24.5 -51t6.5 -49q0 -25 -6.5 -48t-24.5 -51t-61 -45t-106 -17q-20 0 -42 2.5t-35 4.5l-12 3q0 -94 89 -94q63 0 86 3 q0 8 2.5 18t4.5 16l2 5h80zM168 300h89q43 0 55.5 12t12.5 36q0 16 -3 25t-19 16.5t-46 7.5q-47 0 -68 -21.5t-21 -75.5zM182 555l-72 72q57 66 154 143q43 -34 81 -70t55 -54l17 -19l-72 -72q-38 37 -81 73z" />
<glyph unicode="&#xeb;" horiz-adv-x="487" d="M432 145v-130q-87 -25 -175 -25q-54 0 -93.5 14.5t-63 38t-38 59t-19 70t-4.5 78.5q0 63 8.5 106t31 80.5t67 55.5t111.5 18q63 0 106 -17t61 -45t24.5 -51t6.5 -49q0 -25 -6.5 -48t-24.5 -51t-61 -45t-106 -17q-20 0 -42 2.5t-35 4.5l-12 3q0 -94 89 -94q63 0 86 3 q0 8 2.5 18t4.5 16l2 5h80zM168 300h89q43 0 55.5 12t12.5 36q0 16 -3 25t-19 16.5t-46 7.5q-47 0 -68 -21.5t-21 -75.5zM94 650q0 31 22 53t53 22t53 -22t22 -53t-22 -53t-53 -22t-53 22t-22 53zM284 650q0 31 22 53t53 22t52.5 -22t21.5 -53t-21.5 -53t-52.5 -22t-53 22 t-22 53z" />
<glyph unicode="&#xec;" horiz-adv-x="344" d="M36 0v98q37 7 82 9q-4 96 -4 226v60l-78 9v98h208v-392l78 -5v-103h-286zM269 627l-72 -72q-77 46 -161 128v20l79 67q39 -39 77.5 -74.5t57.5 -51.5z" />
<glyph unicode="&#xed;" horiz-adv-x="344" d="M36 0v98q37 7 82 9q-4 96 -4 226v60l-78 9v98h208v-392l78 -5v-103h-286zM161 555l-72 72q67 56 153 143l80 -67v-20q-37 -36 -77.5 -68t-62.5 -46z" />
<glyph unicode="&#xee;" horiz-adv-x="344" d="M91 555l-72 72q57 66 153 143q43 -34 81.5 -70t55.5 -54l17 -19l-72 -72q-38 37 -82 73zM36 0v98q37 7 82 9q-4 96 -4 226v60l-78 9v98h208v-392l78 -5v-103h-286z" />
<glyph unicode="&#xef;" horiz-adv-x="344" d="M36 0v98q37 7 82 9q-4 96 -4 226v60l-78 9v98h208v-392l78 -5v-103h-286zM19 650q0 31 22 53t53 22t53 -22t22 -53t-22 -53t-53 -22t-53 22t-22 53zM189 650q0 31 22 53t53 22t53 -22t22 -53t-22 -53t-53 -22t-53 22t-22 53z" />
<glyph unicode="&#xf0;" horiz-adv-x="585" d="M66 520v160q73 30 208 30q120 0 186 -66l132 58v-110q-39 -31 -80 -45q20 -71 20 -197q0 -41 -1 -69t-6.5 -69t-15.5 -69t-29 -59t-45.5 -50t-67.5 -31.5t-93 -12.5q-62 0 -108 12.5t-72.5 32.5t-42 50.5t-20.5 60t-5 67.5q0 96 65.5 160t189.5 64q27 0 57 -2.5t47 -4.5 l17 -3q0 31 -6 69q-31 -13 -68.5 -26.5t-59.5 -20.5l-22 -7v97q43 27 89 51q-3 0 -26 3.5t-35 3.5q-21 0 -57.5 -3.5t-43.5 -3.5l-9 -70h-98zM402 317h-121q-62 0 -94 -30t-32 -74q0 -21 3.5 -36t14 -34t36 -29.5t65.5 -10.5q128 0 128 214z" />
<glyph unicode="&#xf1;" horiz-adv-x="648" d="M34 0v98q45 7 85 9q-5 120 -5 226v60l-77 9v98h185q7 -33 9 -40q13 18 44.5 34t58.5 16q61 0 104 -18.5t65 -43t34 -64.5t14.5 -67.5t2.5 -66.5q0 -46 -5 -143l85 -9v-98h-287v103q39 5 77 5v142q0 33 -3 55.5t-11.5 45.5t-27.5 34.5t-48 11.5q-90 0 -90 -127v-162l77 -5 v-103h-287zM275 590h-94q0 65 28.5 97.5t67.5 32.5q25 0 55 -17t39 -17q10 0 14 13q1 5 1 11h95q0 -65 -28.5 -97.5t-68.5 -32.5q-24 0 -54 16.5t-39 16.5q-12 0 -15 -14z" />
<glyph unicode="&#xf2;" horiz-adv-x="547" d="M273 96q57 0 82 44.5t25 109.5t-25 109t-82 44t-82 -44t-25 -109t25 -109.5t82 -44.5zM273 -10q-236 0 -236 260t236 260q237 0 237 -260t-237 -260zM365 627l-72 -72q-78 45 -165 132l84 83q38 -39 76.5 -74.5t57.5 -51.5z" />
<glyph unicode="&#xf3;" horiz-adv-x="547" d="M273 96q57 0 82 44.5t25 109.5t-25 109t-82 44t-82 -44t-25 -109t25 -109.5t82 -44.5zM273 -10q-236 0 -236 260t236 260q237 0 237 -260t-237 -260zM257 555l-72 72q67 56 153 143l84 -83q-39 -39 -80 -72t-63 -47z" />
<glyph unicode="&#xf4;" horiz-adv-x="547" d="M273 96q57 0 82 44.5t25 109.5t-25 109t-82 44t-82 -44t-25 -109t25 -109.5t82 -44.5zM273 -10q-236 0 -236 260t236 260q237 0 237 -260t-237 -260zM192 555l-72 72q57 66 153 143q43 -34 81.5 -70t55.5 -54l17 -19l-72 -72q-38 37 -82 73z" />
<glyph unicode="&#xf5;" horiz-adv-x="547" d="M273 96q57 0 82 44.5t25 109.5t-25 109t-82 44t-82 -44t-25 -109t25 -109.5t82 -44.5zM273 -10q-236 0 -236 260t236 260q237 0 237 -260t-237 -260zM218 590h-95q0 65 28.5 97.5t68.5 32.5q24 0 54 -17t39 -17q11 0 14 13q1 5 1 11h95q0 -65 -28.5 -97.5t-67.5 -32.5 q-25 0 -55 16.5t-39 16.5q-11 0 -14 -14q-1 -4 -1 -9z" />
<glyph unicode="&#xf6;" horiz-adv-x="547" d="M273 96q57 0 82 44.5t25 109.5t-25 109t-82 44t-82 -44t-25 -109t25 -109.5t82 -44.5zM273 -10q-236 0 -236 260t236 260q237 0 237 -260t-237 -260zM103 650q0 31 22 53t53 22t53 -22t22 -53t-22 -53t-53 -22t-53 22t-22 53zM293 650q0 31 22 53t53 22t53 -22t22 -53 t-22 -53t-53 -22t-53 22t-22 53z" />
<glyph unicode="&#xf7;" horiz-adv-x="546" d="M198 115q0 31 22 53t53 22t53 -22t22 -53t-22 -53t-53 -22t-53 22t-22 53zM198 465q0 31 22 53t53 22t53 -22t22 -53t-22 -53t-53 -22t-53 22t-22 53zM33 230v120h480v-120h-480z" />
<glyph unicode="&#xf8;" horiz-adv-x="553" d="M16 0l64 81q-40 61 -40 169q0 260 236 260q73 0 120 -22l10 12h130l-63 -81q40 -63 40 -169q0 -260 -237 -260q-69 0 -121 21l-9 -11h-130zM380 300l-152 -195q21 -9 48 -9q52 0 79.5 40.5t27.5 113.5q0 28 -3 50zM172 198l152 196q-22 9 -48 9q-51 0 -79 -39t-28 -114 q0 -30 3 -52z" />
<glyph unicode="&#xf9;" horiz-adv-x="647" d="M610 0h-185q-7 33 -9 40q-13 -18 -44.5 -34t-58.5 -16q-61 0 -104 18.5t-65 43t-34 64.5t-14.5 67.5t-2.5 66.5q0 29 4 143l-84 9v98h287v-103q-39 -5 -77 -5v-142q0 -33 3 -55.5t11.5 -45.5t27.5 -34.5t48 -11.5q90 0 90 127v162l-77 5v103h287v-98q-39 -7 -85 -9 q5 -122 5 -226q0 -40 -1 -60l78 -9v-98zM405 627l-72 -72q-78 45 -165 132l83 83q39 -39 77.5 -74.5t57.5 -51.5z" />
<glyph unicode="&#xfa;" horiz-adv-x="647" d="M610 0h-185q-7 33 -9 40q-13 -18 -44.5 -34t-58.5 -16q-61 0 -104 18.5t-65 43t-34 64.5t-14.5 67.5t-2.5 66.5q0 29 4 143l-84 9v98h287v-103q-39 -5 -77 -5v-142q0 -33 3 -55.5t11.5 -45.5t27.5 -34.5t48 -11.5q90 0 90 127v162l-77 5v103h287v-98q-39 -7 -85 -9 q5 -122 5 -226q0 -40 -1 -60l78 -9v-98zM296 555l-71 72q66 56 153 143l83 -83q-38 -39 -79.5 -72t-63.5 -47z" />
<glyph unicode="&#xfb;" horiz-adv-x="647" d="M610 0h-185q-7 33 -9 40q-13 -18 -44.5 -34t-58.5 -16q-61 0 -104 18.5t-65 43t-34 64.5t-14.5 67.5t-2.5 66.5q0 29 4 143l-84 9v98h287v-103q-39 -5 -77 -5v-142q0 -33 3 -55.5t11.5 -45.5t27.5 -34.5t48 -11.5q90 0 90 127v162l-77 5v103h287v-98q-39 -7 -85 -9 q5 -122 5 -226q0 -40 -1 -60l78 -9v-98zM231 555l-71 72q56 66 153 143q43 -34 81.5 -70t55.5 -54l16 -19l-71 -72q-39 37 -82 73z" />
<glyph unicode="&#xfc;" horiz-adv-x="647" d="M610 0h-185q-7 33 -9 40q-13 -18 -44.5 -34t-58.5 -16q-61 0 -104 18.5t-65 43t-34 64.5t-14.5 67.5t-2.5 66.5q0 29 4 143l-84 9v98h287v-103q-39 -5 -77 -5v-142q0 -33 3 -55.5t11.5 -45.5t27.5 -34.5t48 -11.5q90 0 90 127v162l-77 5v103h287v-98q-39 -7 -85 -9 q5 -122 5 -226q0 -40 -1 -60l78 -9v-98zM143 650q0 31 22 53t53 22t53 -22t22 -53t-22 -53t-53 -22t-53 22t-22 53zM333 650q0 31 22 53t53 22t53 -22t22 -53t-22 -53t-53 -22t-53 22t-22 53z" />
<glyph unicode="&#xfd;" horiz-adv-x="631" d="M139 -99h87q8 -26 10 -51q38 -4 76 -4q89 0 89 154q-50 -10 -89 -10q-50 0 -88 12t-61 34t-38 46t-22 56.5t-9 57t-2 54.5q0 15 2 65t2 78l-84 9v98h287v-103q-38 -5 -77 -5v-142q0 -68 18.5 -107.5t71.5 -39.5q46 0 68 36t22 91v162l-76 5v103h286v-98q-45 -7 -85 -9 q5 -125 5 -234q0 -91 -4.5 -152.5t-18 -116t-38 -85t-63.5 -48t-96 -17.5q-38 0 -81.5 3t-67.5 7l-24 3v148zM296 555l-72 72q67 56 153 143l84 -83q-39 -39 -80 -72t-63 -47z" />
<glyph unicode="&#xfe;" horiz-adv-x="547" d="M-10 -250v98q43 7 88 9q-8 352 -8 393q0 170 6 393l-86 9v98h222q-12 -155 -12 -247q42 7 90 7q59 0 102 -18.5t65 -43.5t34 -64.5t14.5 -67.5t2.5 -66t-2.5 -66t-14.5 -67.5t-34 -64.5t-65 -43.5t-102 -18.5q-60 0 -90 7l4 -139l74 -5v-103h-288zM290 103 q29 0 47.5 11.5t27 34.5t11 45.5t2.5 55.5q0 34 -2.5 56.5t-11 47t-27 37t-47.5 12.5q-49 0 -69 -30.5t-20 -122.5q0 -84 20.5 -115.5t68.5 -31.5z" />
<glyph unicode="&#xff;" horiz-adv-x="631" d="M139 -99h87q8 -26 10 -51q38 -4 76 -4q89 0 89 154q-50 -10 -89 -10q-50 0 -88 12t-61 34t-38 46t-22 56.5t-9 57t-2 54.5q0 15 2 65t2 78l-84 9v98h287v-103q-38 -5 -77 -5v-142q0 -68 18.5 -107.5t71.5 -39.5q46 0 68 36t22 91v162l-76 5v103h286v-98q-45 -7 -85 -9 q5 -125 5 -234q0 -91 -4.5 -152.5t-18 -116t-38 -85t-63.5 -48t-96 -17.5q-38 0 -81.5 3t-67.5 7l-24 3v148zM142 650q0 31 22 53t53 22t53 -22t22 -53t-22 -53t-53 -22t-53 22t-22 53zM332 650q0 31 22 53t53 22t53 -22t22 -53t-22 -53t-53 -22t-53 22t-22 53z" />
<glyph unicode="&#x152;" horiz-adv-x="986" d="M943 186v-186q-128 -10 -220 -10q-44 0 -94 2.5t-78 5.5l-28 2l-1 -2q-7 9 -11 49q-28 -24 -76 -40.5t-100 -16.5q-292 0 -292 360t292 360q52 0 100 -16.5t76 -40.5q5 36 12 47q83 10 200 10q41 0 96 -2.5t89 -5.5l35 -2v-187h-105q-6 32 -8 76q-37 1 -107 1l-93 -5 v-178h156l9 70h98v-254h-98q-7 31 -9 70h-156l5 -178q57 -5 88 -5q87 0 105 1l10 75h105zM335 110q49 0 82.5 20t51 57.5t24.5 79.5t7 96q0 100 -39 163.5t-126 63.5q-162 0 -162 -240t162 -240z" />
<glyph unicode="&#x153;" horiz-adv-x="828" d="M773 145v-130q-86 -25 -175 -25q-95 0 -159 56q-64 -56 -166 -56q-236 0 -236 260t236 260q111 0 166 -51q49 51 159 51q63 0 106 -17t61.5 -45t25 -51.5t6.5 -48.5t-6.5 -48t-25 -51t-61.5 -45t-106 -17q-20 0 -42 2.5t-34 4.5l-12 3q0 -94 88 -94q63 0 87 3l8 39h80z M273 96q55 0 81 42t26 112q0 67 -27 110t-80 43q-57 0 -82 -44t-25 -109t25 -109.5t82 -44.5zM510 300h88q44 0 56.5 12t12.5 36q0 16 -3.5 25t-19 16.5t-46.5 7.5q-47 0 -67.5 -21.5t-20.5 -75.5z" />
<glyph unicode="&#x178;" horiz-adv-x="645" d="M168 0v105q39 7 84 9q6 83 6 169q-99 154 -171 303l-79 9v105h299v-110q-46 -5 -79 -5q44 -97 95 -183q47 79 94 183l-79 5v110h300v-105q-40 -7 -80 -9q-69 -143 -170 -303q0 -77 -4 -168l84 -5v-110h-300zM153 850q0 31 22 53t53 22t53 -22t22 -53t-22 -53t-53 -22 t-53 22t-22 53zM343 850q0 31 22 53t53 22t52.5 -22t21.5 -53t-21.5 -53t-52.5 -22t-53 22t-22 53z" />
<glyph unicode="&#x2c6;" horiz-adv-x="387" d="M112 555l-72 72q57 66 153 143q43 -34 81.5 -70t55.5 -54l17 -19l-72 -72q-38 37 -82 73z" />
<glyph unicode="&#x2dc;" horiz-adv-x="380" d="M135 590h-95q0 65 28.5 97.5t68.5 32.5q24 0 54 -17t39 -17q11 0 14 13q1 5 1 11h95q0 -65 -28.5 -97.5t-68.5 -32.5q-24 0 -54 16.5t-39 16.5q-12 0 -14 -14q-1 -4 -1 -9z" />
<glyph unicode="&#x2000;" horiz-adv-x="489" />
<glyph unicode="&#x2001;" horiz-adv-x="978" />
<glyph unicode="&#x2002;" horiz-adv-x="489" />
<glyph unicode="&#x2003;" horiz-adv-x="978" />
<glyph unicode="&#x2004;" horiz-adv-x="326" />
<glyph unicode="&#x2005;" horiz-adv-x="244" />
<glyph unicode="&#x2006;" horiz-adv-x="163" />
<glyph unicode="&#x2007;" horiz-adv-x="163" />
<glyph unicode="&#x2008;" horiz-adv-x="122" />
<glyph unicode="&#x2009;" horiz-adv-x="195" />
<glyph unicode="&#x200a;" horiz-adv-x="54" />
<glyph unicode="&#x2010;" horiz-adv-x="347" d="M54 230v120h240v-120h-240z" />
<glyph unicode="&#x2011;" horiz-adv-x="347" d="M54 230v120h240v-120h-240z" />
<glyph unicode="&#x2012;" horiz-adv-x="347" d="M54 230v120h240v-120h-240z" />
<glyph unicode="&#x2013;" horiz-adv-x="507" d="M54 230v120h400v-120h-400z" />
<glyph unicode="&#x2014;" horiz-adv-x="907" d="M54 230v120h800v-120h-800z" />
<glyph unicode="&#x2018;" horiz-adv-x="215" d="M71 700h106q-10 -103 -10 -253h-130q0 67 8.5 130t16.5 93z" />
<glyph unicode="&#x2019;" horiz-adv-x="211" d="M146 447h-106q10 103 10 253h129q0 -67 -8.5 -130t-16.5 -93z" />
<glyph unicode="&#x201a;" horiz-adv-x="227" d="M147 -100h-106q10 103 10 253h129q0 -67 -8 -130t-16 -93z" />
<glyph unicode="&#x201c;" horiz-adv-x="394" d="M251 700h106q-10 -103 -10 -253h-130q0 67 8.5 130t16.5 93zM71 700h106q-10 -103 -10 -253h-130q0 67 8.5 130t16.5 93z" />
<glyph unicode="&#x201d;" horiz-adv-x="391" d="M146 447h-106q10 103 10 253h129q0 -67 -8.5 -130t-16.5 -93zM326 447h-106q10 103 10 253h129q0 -67 -8.5 -130t-16.5 -93z" />
<glyph unicode="&#x201e;" horiz-adv-x="407" d="M147 -100h-106q10 103 10 253h129q0 -67 -8 -130t-16 -93zM327 -100h-106q10 103 10 253h129q0 -67 -8 -130t-16 -93z" />
<glyph unicode="&#x2022;" horiz-adv-x="256" d="M38 290q0 38 26 64t64 26t64 -26t26 -64t-26 -64t-64 -26t-64 26t-26 64z" />
<glyph unicode="&#x2026;" horiz-adv-x="658" d="M474 63q0 31 22 53t53 22t53 -22t22 -53t-22 -53t-53 -22t-53 22t-22 53zM254 63q0 31 22 53t53 22t53 -22t22 -53t-22 -53t-53 -22t-53 22t-22 53zM34 63q0 31 22 53t53 22t53 -22t22 -53t-22 -53t-53 -22t-53 22t-22 53z" />
<glyph unicode="&#x202f;" horiz-adv-x="195" />
<glyph unicode="&#x2039;" horiz-adv-x="339" d="M309 148l-71 -71q-56 40 -109 82.5t-78 64.5l-25 23q-12 11 -12 43q0 14 3 25t6 15l3 3q85 79 212 170l71 -71q-56 -43 -162 -142q-3 3 1 -1l5 -5q88 -83 156 -136z" />
<glyph unicode="&#x203a;" horiz-adv-x="339" d="M101 77l-72 71q56 43 162 142q3 -3 -1 1l-5 5q-88 83 -156 136l72 71q56 -40 108.5 -82.5t77.5 -64.5l25 -23q12 -11 12 -43q0 -14 -3 -25t-6 -15l-3 -3q-85 -79 -211 -170z" />
<glyph unicode="&#x205f;" horiz-adv-x="244" />
<glyph unicode="&#x20ac;" horiz-adv-x="622" d="M44 183v120h70v94h-70v119h82q43 194 256 194q56 0 104.5 -10t69.5 -20l21 -10v-121q-83 41 -195 41q-92 0 -123 -74h251v-119h-267v-94h267v-120h-251q31 -73 123 -73q42 0 91 8t77 16l27 7v-121q-70 -30 -195 -30q-214 0 -256 193h-82z" />
<glyph unicode="&#x2122;" horiz-adv-x="1018" d="M437 350v73q27 9 48 9l-2 92v1l2 86l-48 9v80h226q18 -55 37 -123v-7l1 7l37 123h226v-80q-23 -8 -48 -10q3 -33 3 -85l-3 -93q10 0 22 -2t19 -4l7 -3v-73h-195v77q25 7 46 7v78v81q-59 -180 -79 -243h-71q-22 66 -47.5 145t-31.5 98v-68l2 -91l44 -6v-78h-195zM129 350 v73q24 9 53 11l-3 90v1v97h-39l-9 -50h-74v128q93 5 174 5l176 -5v-128h-73q-7 26 -9 51q-8 0 -21 -0.5t-19 -0.5v-97l4 -91l46 -6v-78h-206z" />
</font>
</defs>
</svg>
