<?xml version="1.0" encoding="UTF-8" standalone="no"?>
<!-- Created with Inkscape (http://www.inkscape.org/) -->

<svg
   xmlns:dc="http://purl.org/dc/elements/1.1/"
   xmlns:cc="http://creativecommons.org/ns#"
   xmlns:rdf="http://www.w3.org/1999/02/22-rdf-syntax-ns#"
   xmlns:svg="http://www.w3.org/2000/svg"
   xmlns="http://www.w3.org/2000/svg"
   xmlns:sodipodi="http://sodipodi.sourceforge.net/DTD/sodipodi-0.dtd"
   xmlns:inkscape="http://www.inkscape.org/namespaces/inkscape"
   width="48"
   height="32"
   viewBox="0 0 48 32"
   id="svg2"
   version="1.1"
   inkscape:version="0.91 r13725"
   sodipodi:docname="icons.svg">
  <defs
     id="defs4" />
  <sodipodi:namedview
     id="base"
     pagecolor="#ffffff"
     bordercolor="#666666"
     borderopacity="1.0"
     inkscape:pageopacity="0.0"
     inkscape:pageshadow="2"
     inkscape:zoom="16"
     inkscape:cx="30.647164"
     inkscape:cy="13.676621"
     inkscape:document-units="px"
     inkscape:current-layer="layer1"
     showgrid="false"
     units="px"
     inkscape:window-width="1920"
     inkscape:window-height="1056"
     inkscape:window-x="0"
     inkscape:window-y="24"
     inkscape:window-maximized="1"
     fit-margin-top="0"
     fit-margin-left="0"
     fit-margin-right="0"
     fit-margin-bottom="0" />
  <metadata
     id="metadata7">
    <rdf:RDF>
      <cc:Work
         rdf:about="">
        <dc:format>image/svg+xml</dc:format>
        <dc:type
           rdf:resource="http://purl.org/dc/dcmitype/StillImage" />
        <dc:title></dc:title>
      </cc:Work>
    </rdf:RDF>
  </metadata>
  <g
     inkscape:label="Layer 1"
     inkscape:groupmode="layer"
     id="layer1"
     transform="translate(0,-1020.3621)">
    <g
       id="g3480"
       transform="matrix(0.04596689,0,0,0.04607105,1.5984615e-5,1036.344)">
      <g
         id="g3436">
        <g
           id="g3438">
          <g
             id="g3440">
            <path
               id="path3442"
               d="M 340.273,275.083 286.518,221.322 C 275.811,210.658 258.08,210.982 247,222.066 l -27.082,27.076 c -1.711,-0.943 -3.482,-1.928 -5.344,-2.973 -17.102,-9.476 -40.509,-22.464 -65.14,-47.113 -24.704,-24.701 -37.704,-48.144 -47.209,-65.257 -1.003,-1.813 -1.964,-3.561 -2.913,-5.221 l 18.176,-18.149 8.936,-8.947 c 11.097,-11.1 11.403,-28.826 0.721,-39.521 L 73.39,8.194 C 62.708,-2.486 44.969,-2.162 33.872,8.938 l -15.15,15.237 0.414,0.411 C 14.056,31.068 9.811,38.544 6.652,46.606 3.74,54.28 1.927,61.603 1.098,68.941 -6,127.785 20.89,181.564 93.866,254.541 c 100.875,100.868 182.167,93.248 185.674,92.876 7.638,-0.913 14.958,-2.738 22.397,-5.627 7.992,-3.122 15.463,-7.361 21.941,-12.43 l 0.331,0.294 15.348,-15.029 c 11.074,-11.098 11.393,-28.83 0.716,-39.542 z"
               inkscape:connector-curvature="0" />
          </g>
        </g>
      </g>
      <g
         id="g3444" />
      <g
         id="g3446" />
      <g
         id="g3448" />
      <g
         id="g3450" />
      <g
         id="g3452" />
      <g
         id="g3454" />
      <g
         id="g3456" />
      <g
         id="g3458" />
      <g
         id="g3460" />
      <g
         id="g3462" />
      <g
         id="g3464" />
      <g
         id="g3466" />
      <g
         id="g3468" />
      <g
         id="g3470" />
      <g
         id="g3472" />
    </g>
    <g
       id="g3614"
       transform="matrix(0.04187199,0,0,0.04019001,16,1037.1406)">
      <path
         id="path3576"
         d="m 336.764,45.945 -291.41,0 C 20.346,45.945 0,65.484 0,89.5 l 0,203.117 c 0,24.016 20.346,43.555 45.354,43.555 l 291.41,0 c 25.008,0 45.353,-19.539 45.353,-43.555 l 0,-203.117 c 0,-24.016 -20.345,-43.555 -45.353,-43.555 z m 0,251.775 -291.41,0 c -3.676,0 -6.9,-2.384 -6.9,-5.103 l 0,-176.258 131.797,111.27 c 2.702,2.282 6.138,3.538 9.676,3.538 l 22.259,0.001 c 3.536,0 6.974,-1.257 9.677,-3.539 l 131.803,-111.274 0,176.264 c -0.002,2.717 -3.227,5.101 -6.902,5.101 z M 191.059,192.987 62.87,84.397 l 256.378,0 -128.189,108.59 z"
         inkscape:connector-curvature="0" />
      <g
         id="g3578" />
      <g
         id="g3580" />
      <g
         id="g3582" />
      <g
         id="g3584" />
      <g
         id="g3586" />
      <g
         id="g3588" />
      <g
         id="g3590" />
      <g
         id="g3592" />
      <g
         id="g3594" />
      <g
         id="g3596" />
      <g
         id="g3598" />
      <g
         id="g3600" />
      <g
         id="g3602" />
      <g
         id="g3604" />
      <g
         id="g3606" />
    </g>
    <g
       id="g3749"
       transform="matrix(0.02921864,0,0,0.03013731,32.063124,1035.9619)">
      <g
         id="g3709">
        <path
           id="path3711"
           d="M 538.59921,254.788 292.34521,38.216 c -11.475,-10.098 -30.064,-10.098 -41.386,0 L 4.7822065,254.788 c -11.475,10.098 -8.415,18.284 6.8849995,18.284 l 75.964,0 0,221.773 c 0,12.087 9.945,22.108 22.108004,22.108 l 92.947,0 0,-145.886 c 0,-12.087 9.945,-22.108 22.109,-22.108 l 93.865,0 c 12.239,0 22.108,9.792 22.108,22.108 l 0,145.886 92.947,0 c 12.24,0 22.108,-9.945 22.108,-22.108 l 0,-221.85 75.965,0 c 15.072,0 18.132,-8.109 6.811,-18.207 z"
           inkscape:connector-curvature="0" />
      </g>
      <g
         id="g3713" />
      <g
         id="g3715" />
      <g
         id="g3717" />
      <g
         id="g3719" />
      <g
         id="g3721" />
      <g
         id="g3723" />
      <g
         id="g3725" />
      <g
         id="g3727" />
      <g
         id="g3729" />
      <g
         id="g3731" />
      <g
         id="g3733" />
      <g
         id="g3735" />
      <g
         id="g3737" />
      <g
         id="g3739" />
      <g
         id="g3741" />
    </g>
    <g
       transform="matrix(0.04596689,0,0,0.04607105,1.5984614e-5,1020.344)"
       id="g3787"
       style="fill:#ffffff">
      <g
         id="g3789"
         style="fill:#ffffff">
        <g
           id="g3791"
           style="fill:#ffffff">
          <g
             id="g3793"
             style="fill:#ffffff">
            <path
               inkscape:connector-curvature="0"
               d="M 340.273,275.083 286.518,221.322 C 275.811,210.658 258.08,210.982 247,222.066 l -27.082,27.076 c -1.711,-0.943 -3.482,-1.928 -5.344,-2.973 -17.102,-9.476 -40.509,-22.464 -65.14,-47.113 -24.704,-24.701 -37.704,-48.144 -47.209,-65.257 -1.003,-1.813 -1.964,-3.561 -2.913,-5.221 l 18.176,-18.149 8.936,-8.947 c 11.097,-11.1 11.403,-28.826 0.721,-39.521 L 73.39,8.194 C 62.708,-2.486 44.969,-2.162 33.872,8.938 l -15.15,15.237 0.414,0.411 C 14.056,31.068 9.811,38.544 6.652,46.606 3.74,54.28 1.927,61.603 1.098,68.941 -6,127.785 20.89,181.564 93.866,254.541 c 100.875,100.868 182.167,93.248 185.674,92.876 7.638,-0.913 14.958,-2.738 22.397,-5.627 7.992,-3.122 15.463,-7.361 21.941,-12.43 l 0.331,0.294 15.348,-15.029 c 11.074,-11.098 11.393,-28.83 0.716,-39.542 z"
               id="path3795"
               style="fill:#ffffff" />
          </g>
        </g>
      </g>
      <g
         id="g3797"
         style="fill:#ffffff" />
      <g
         id="g3799"
         style="fill:#ffffff" />
      <g
         id="g3801"
         style="fill:#ffffff" />
      <g
         id="g3803"
         style="fill:#ffffff" />
      <g
         id="g3805"
         style="fill:#ffffff" />
      <g
         id="g3807"
         style="fill:#ffffff" />
      <g
         id="g3809"
         style="fill:#ffffff" />
      <g
         id="g3811"
         style="fill:#ffffff" />
      <g
         id="g3813"
         style="fill:#ffffff" />
      <g
         id="g3815"
         style="fill:#ffffff" />
      <g
         id="g3817"
         style="fill:#ffffff" />
      <g
         id="g3819"
         style="fill:#ffffff" />
      <g
         id="g3821"
         style="fill:#ffffff" />
      <g
         id="g3823"
         style="fill:#ffffff" />
      <g
         id="g3825"
         style="fill:#ffffff" />
    </g>
    <g
       transform="matrix(0.04187199,0,0,0.04019001,16,1020.3281)"
       id="g3827"
       style="fill:#ffffff">
      <path
         inkscape:connector-curvature="0"
         d="m 336.764,66.161463 -291.41,0 C 20.346,66.161463 0,85.700463 0,109.71646 l 0,203.11701 c 0,24.016 20.346,43.555 45.354,43.555 l 291.41,0 c 25.008,0 45.353,-19.539 45.353,-43.555 l 0,-203.11701 c 0,-24.015997 -20.345,-43.554997 -45.353,-43.554997 z m 0,251.775007 -291.41,0 c -3.676,0 -6.9,-2.384 -6.9,-5.103 l 0,-176.258 131.797,111.27 c 2.702,2.282 6.138,3.538 9.676,3.538 l 22.259,0.001 c 3.536,0 6.974,-1.257 9.677,-3.539 l 131.803,-111.274 0,176.264 c -0.002,2.717 -3.227,5.101 -6.902,5.101 z M 191.059,213.20347 62.87,104.61346 l 256.378,0 -128.189,108.59001 z"
         id="path3829"
         style="fill:#ffffff" />
      <g
         id="g3831"
         style="fill:#ffffff" />
      <g
         id="g3833"
         style="fill:#ffffff" />
      <g
         id="g3835"
         style="fill:#ffffff" />
      <g
         id="g3837"
         style="fill:#ffffff" />
      <g
         id="g3839"
         style="fill:#ffffff" />
      <g
         id="g3841"
         style="fill:#ffffff" />
      <g
         id="g3843"
         style="fill:#ffffff" />
      <g
         id="g3845"
         style="fill:#ffffff" />
      <g
         id="g3847"
         style="fill:#ffffff" />
      <g
         id="g3849"
         style="fill:#ffffff" />
      <g
         id="g3851"
         style="fill:#ffffff" />
      <g
         id="g3853"
         style="fill:#ffffff" />
      <g
         id="g3855"
         style="fill:#ffffff" />
      <g
         id="g3857"
         style="fill:#ffffff" />
      <g
         id="g3859"
         style="fill:#ffffff" />
    </g>
    <g
       transform="matrix(0.02921864,0,0,0.03013731,32.063124,1019.9619)"
       id="g3861"
       style="fill:#ffffff">
      <g
         id="g3863"
         style="fill:#ffffff">
        <path
           inkscape:connector-curvature="0"
           d="M 538.59921,254.788 292.34521,38.216 c -11.475,-10.098 -30.064,-10.098 -41.386,0 L 4.7822065,254.788 c -11.475,10.098 -8.415,18.284 6.8849995,18.284 l 75.964,0 0,221.773 c 0,12.087 9.945,22.108 22.108004,22.108 l 92.947,0 0,-145.886 c 0,-12.087 9.945,-22.108 22.109,-22.108 l 93.865,0 c 12.239,0 22.108,9.792 22.108,22.108 l 0,145.886 92.947,0 c 12.24,0 22.108,-9.945 22.108,-22.108 l 0,-221.85 75.965,0 c 15.072,0 18.132,-8.109 6.811,-18.207 z"
           id="path3865"
           style="fill:#ffffff" />
      </g>
      <g
         id="g3867"
         style="fill:#ffffff" />
      <g
         id="g3869"
         style="fill:#ffffff" />
      <g
         id="g3871"
         style="fill:#ffffff" />
      <g
         id="g3873"
         style="fill:#ffffff" />
      <g
         id="g3875"
         style="fill:#ffffff" />
      <g
         id="g3877"
         style="fill:#ffffff" />
      <g
         id="g3879"
         style="fill:#ffffff" />
      <g
         id="g3881"
         style="fill:#ffffff" />
      <g
         id="g3883"
         style="fill:#ffffff" />
      <g
         id="g3885"
         style="fill:#ffffff" />
      <g
         id="g3887"
         style="fill:#ffffff" />
      <g
         id="g3889"
         style="fill:#ffffff" />
      <g
         id="g3891"
         style="fill:#ffffff" />
      <g
         id="g3893"
         style="fill:#ffffff" />
      <g
         id="g3895"
         style="fill:#ffffff" />
    </g>
  </g>
</svg>
