<?xml version="1.0" encoding="UTF-8" standalone="no"?>
<!-- Created with Inkscape (http://www.inkscape.org/) -->

<svg
   xmlns:dc="http://purl.org/dc/elements/1.1/"
   xmlns:cc="http://creativecommons.org/ns#"
   xmlns:rdf="http://www.w3.org/1999/02/22-rdf-syntax-ns#"
   xmlns:svg="http://www.w3.org/2000/svg"
   xmlns="http://www.w3.org/2000/svg"
   xmlns:sodipodi="http://sodipodi.sourceforge.net/DTD/sodipodi-0.dtd"
   xmlns:inkscape="http://www.inkscape.org/namespaces/inkscape"
   width="432"
   height="88.000038"
   viewBox="0 0 432 88.000038"
   id="svg2"
   version="1.1"
   inkscape:version="0.91 r13725"
   sodipodi:docname="icons.svg">
  <defs
     id="defs4" />
  <sodipodi:namedview
     id="base"
     pagecolor="#ffffff"
     bordercolor="#666666"
     borderopacity="1.0"
     inkscape:pageopacity="0.0"
     inkscape:pageshadow="2"
     inkscape:zoom="4"
     inkscape:cx="354.72238"
     inkscape:cy="40.847517"
     inkscape:document-units="px"
     inkscape:current-layer="layer1"
     showgrid="true"
     units="px"
     inkscape:window-width="1730"
     inkscape:window-height="893"
     inkscape:window-x="63"
     inkscape:window-y="38"
     inkscape:window-maximized="0"
     fit-margin-top="0"
     fit-margin-left="0"
     fit-margin-right="0"
     fit-margin-bottom="0"
     showguides="true"
     inkscape:snap-global="false">
    <inkscape:grid
       type="xygrid"
       id="grid4248"
       enabled="true"
       dotted="false"
       originy="16.00003"
       originx="-7.8489559e-13" />
  </sodipodi:namedview>
  <metadata
     id="metadata7">
    <rdf:RDF>
      <cc:Work
         rdf:about="">
        <dc:format>image/svg+xml</dc:format>
        <dc:type
           rdf:resource="http://purl.org/dc/dcmitype/StillImage" />
        <dc:title></dc:title>
      </cc:Work>
    </rdf:RDF>
  </metadata>
  <g
     inkscape:label="Layer 1"
     inkscape:groupmode="layer"
     id="layer1"
     transform="translate(0,-964.3621)">
    <g
       id="g3480"
       transform="matrix(0.04596689,0,0,0.04607105,1.5984615e-5,1036.344)">
      <g
         id="g3436">
        <g
           id="g3438">
          <g
             id="g3440">
            <path
               id="path3442"
               d="M 340.273,275.083 286.518,221.322 C 275.811,210.658 258.08,210.982 247,222.066 l -27.082,27.076 c -1.711,-0.943 -3.482,-1.928 -5.344,-2.973 -17.102,-9.476 -40.509,-22.464 -65.14,-47.113 -24.704,-24.701 -37.704,-48.144 -47.209,-65.257 -1.003,-1.813 -1.964,-3.561 -2.913,-5.221 l 18.176,-18.149 8.936,-8.947 c 11.097,-11.1 11.403,-28.826 0.721,-39.521 L 73.39,8.194 C 62.708,-2.486 44.969,-2.162 33.872,8.938 l -15.15,15.237 0.414,0.411 C 14.056,31.068 9.811,38.544 6.652,46.606 3.74,54.28 1.927,61.603 1.098,68.941 -6,127.785 20.89,181.564 93.866,254.541 c 100.875,100.868 182.167,93.248 185.674,92.876 7.638,-0.913 14.958,-2.738 22.397,-5.627 7.992,-3.122 15.463,-7.361 21.941,-12.43 l 0.331,0.294 15.348,-15.029 c 11.074,-11.098 11.393,-28.83 0.716,-39.542 z"
               inkscape:connector-curvature="0" />
          </g>
        </g>
      </g>
      <g
         id="g3444" />
      <g
         id="g3446" />
      <g
         id="g3448" />
      <g
         id="g3450" />
      <g
         id="g3452" />
      <g
         id="g3454" />
      <g
         id="g3456" />
      <g
         id="g3458" />
      <g
         id="g3460" />
      <g
         id="g3462" />
      <g
         id="g3464" />
      <g
         id="g3466" />
      <g
         id="g3468" />
      <g
         id="g3470" />
      <g
         id="g3472" />
    </g>
    <g
       id="g3614"
       transform="matrix(0.04187199,0,0,0.04019001,16,1037.1406)">
      <path
         id="path3576"
         d="m 336.764,45.945 -291.41,0 C 20.346,45.945 0,65.484 0,89.5 l 0,203.117 c 0,24.016 20.346,43.555 45.354,43.555 l 291.41,0 c 25.008,0 45.353,-19.539 45.353,-43.555 l 0,-203.117 c 0,-24.016 -20.345,-43.555 -45.353,-43.555 z m 0,251.775 -291.41,0 c -3.676,0 -6.9,-2.384 -6.9,-5.103 l 0,-176.258 131.797,111.27 c 2.702,2.282 6.138,3.538 9.676,3.538 l 22.259,0.001 c 3.536,0 6.974,-1.257 9.677,-3.539 l 131.803,-111.274 0,176.264 c -0.002,2.717 -3.227,5.101 -6.902,5.101 z M 191.059,192.987 62.87,84.397 l 256.378,0 -128.189,108.59 z"
         inkscape:connector-curvature="0" />
      <g
         id="g3578" />
      <g
         id="g3580" />
      <g
         id="g3582" />
      <g
         id="g3584" />
      <g
         id="g3586" />
      <g
         id="g3588" />
      <g
         id="g3590" />
      <g
         id="g3592" />
      <g
         id="g3594" />
      <g
         id="g3596" />
      <g
         id="g3598" />
      <g
         id="g3600" />
      <g
         id="g3602" />
      <g
         id="g3604" />
      <g
         id="g3606" />
    </g>
    <g
       id="g3749"
       transform="matrix(0.02921864,0,0,0.03013731,32.063124,1035.9619)">
      <g
         id="g3709">
        <path
           id="path3711"
           d="M 538.59921,254.788 292.34521,38.216 c -11.475,-10.098 -30.064,-10.098 -41.386,0 L 4.7822065,254.788 c -11.475,10.098 -8.415,18.284 6.8849995,18.284 l 75.964,0 0,221.773 c 0,12.087 9.945,22.108 22.108004,22.108 l 92.947,0 0,-145.886 c 0,-12.087 9.945,-22.108 22.109,-22.108 l 93.865,0 c 12.239,0 22.108,9.792 22.108,22.108 l 0,145.886 92.947,0 c 12.24,0 22.108,-9.945 22.108,-22.108 l 0,-221.85 75.965,0 c 15.072,0 18.132,-8.109 6.811,-18.207 z"
           inkscape:connector-curvature="0" />
      </g>
      <g
         id="g3713" />
      <g
         id="g3715" />
      <g
         id="g3717" />
      <g
         id="g3719" />
      <g
         id="g3721" />
      <g
         id="g3723" />
      <g
         id="g3725" />
      <g
         id="g3727" />
      <g
         id="g3729" />
      <g
         id="g3731" />
      <g
         id="g3733" />
      <g
         id="g3735" />
      <g
         id="g3737" />
      <g
         id="g3739" />
      <g
         id="g3741" />
    </g>
    <g
       transform="matrix(0.04596689,0,0,0.04607105,48.000016,1036.344)"
       id="g3787"
       style="fill:#ffffff">
      <g
         id="g3789"
         style="fill:#ffffff">
        <g
           id="g3791"
           style="fill:#ffffff">
          <g
             id="g3793"
             style="fill:#ffffff">
            <path
               inkscape:connector-curvature="0"
               d="M 340.273,275.083 286.518,221.322 C 275.811,210.658 258.08,210.982 247,222.066 l -27.082,27.076 c -1.711,-0.943 -3.482,-1.928 -5.344,-2.973 -17.102,-9.476 -40.509,-22.464 -65.14,-47.113 -24.704,-24.701 -37.704,-48.144 -47.209,-65.257 -1.003,-1.813 -1.964,-3.561 -2.913,-5.221 l 18.176,-18.149 8.936,-8.947 c 11.097,-11.1 11.403,-28.826 0.721,-39.521 L 73.39,8.194 C 62.708,-2.486 44.969,-2.162 33.872,8.938 l -15.15,15.237 0.414,0.411 C 14.056,31.068 9.811,38.544 6.652,46.606 3.74,54.28 1.927,61.603 1.098,68.941 -6,127.785 20.89,181.564 93.866,254.541 c 100.875,100.868 182.167,93.248 185.674,92.876 7.638,-0.913 14.958,-2.738 22.397,-5.627 7.992,-3.122 15.463,-7.361 21.941,-12.43 l 0.331,0.294 15.348,-15.029 c 11.074,-11.098 11.393,-28.83 0.716,-39.542 z"
               id="path3795"
               style="fill:#ffffff" />
          </g>
        </g>
      </g>
      <g
         id="g3797"
         style="fill:#ffffff" />
      <g
         id="g3799"
         style="fill:#ffffff" />
      <g
         id="g3801"
         style="fill:#ffffff" />
      <g
         id="g3803"
         style="fill:#ffffff" />
      <g
         id="g3805"
         style="fill:#ffffff" />
      <g
         id="g3807"
         style="fill:#ffffff" />
      <g
         id="g3809"
         style="fill:#ffffff" />
      <g
         id="g3811"
         style="fill:#ffffff" />
      <g
         id="g3813"
         style="fill:#ffffff" />
      <g
         id="g3815"
         style="fill:#ffffff" />
      <g
         id="g3817"
         style="fill:#ffffff" />
      <g
         id="g3819"
         style="fill:#ffffff" />
      <g
         id="g3821"
         style="fill:#ffffff" />
      <g
         id="g3823"
         style="fill:#ffffff" />
      <g
         id="g3825"
         style="fill:#ffffff" />
    </g>
    <g
       transform="matrix(0.04187199,0,0,0.04019001,64,1036.3281)"
       id="g3827"
       style="fill:#ffffff">
      <path
         inkscape:connector-curvature="0"
         d="m 336.764,66.161463 -291.41,0 C 20.346,66.161463 0,85.700463 0,109.71646 l 0,203.11701 c 0,24.016 20.346,43.555 45.354,43.555 l 291.41,0 c 25.008,0 45.353,-19.539 45.353,-43.555 l 0,-203.11701 c 0,-24.015997 -20.345,-43.554997 -45.353,-43.554997 z m 0,251.775007 -291.41,0 c -3.676,0 -6.9,-2.384 -6.9,-5.103 l 0,-176.258 131.797,111.27 c 2.702,2.282 6.138,3.538 9.676,3.538 l 22.259,0.001 c 3.536,0 6.974,-1.257 9.677,-3.539 l 131.803,-111.274 0,176.264 c -0.002,2.717 -3.227,5.101 -6.902,5.101 z M 191.059,213.20347 62.87,104.61346 l 256.378,0 -128.189,108.59001 z"
         id="path3829"
         style="fill:#ffffff" />
      <g
         id="g3831"
         style="fill:#ffffff" />
      <g
         id="g3833"
         style="fill:#ffffff" />
      <g
         id="g3835"
         style="fill:#ffffff" />
      <g
         id="g3837"
         style="fill:#ffffff" />
      <g
         id="g3839"
         style="fill:#ffffff" />
      <g
         id="g3841"
         style="fill:#ffffff" />
      <g
         id="g3843"
         style="fill:#ffffff" />
      <g
         id="g3845"
         style="fill:#ffffff" />
      <g
         id="g3847"
         style="fill:#ffffff" />
      <g
         id="g3849"
         style="fill:#ffffff" />
      <g
         id="g3851"
         style="fill:#ffffff" />
      <g
         id="g3853"
         style="fill:#ffffff" />
      <g
         id="g3855"
         style="fill:#ffffff" />
      <g
         id="g3857"
         style="fill:#ffffff" />
      <g
         id="g3859"
         style="fill:#ffffff" />
    </g>
    <g
       transform="matrix(0.02921864,0,0,0.03013731,80.063124,1035.9619)"
       id="g3861"
       style="fill:#ffffff">
      <g
         id="g3863"
         style="fill:#ffffff">
        <path
           inkscape:connector-curvature="0"
           d="M 538.59921,254.788 292.34521,38.216 c -11.475,-10.098 -30.064,-10.098 -41.386,0 L 4.7822065,254.788 c -11.475,10.098 -8.415,18.284 6.8849995,18.284 l 75.964,0 0,221.773 c 0,12.087 9.945,22.108 22.108004,22.108 l 92.947,0 0,-145.886 c 0,-12.087 9.945,-22.108 22.109,-22.108 l 93.865,0 c 12.239,0 22.108,9.792 22.108,22.108 l 0,145.886 92.947,0 c 12.24,0 22.108,-9.945 22.108,-22.108 l 0,-221.85 75.965,0 c 15.072,0 18.132,-8.109 6.811,-18.207 z"
           id="path3865"
           style="fill:#ffffff" />
      </g>
      <g
         id="g3867"
         style="fill:#ffffff" />
      <g
         id="g3869"
         style="fill:#ffffff" />
      <g
         id="g3871"
         style="fill:#ffffff" />
      <g
         id="g3873"
         style="fill:#ffffff" />
      <g
         id="g3875"
         style="fill:#ffffff" />
      <g
         id="g3877"
         style="fill:#ffffff" />
      <g
         id="g3879"
         style="fill:#ffffff" />
      <g
         id="g3881"
         style="fill:#ffffff" />
      <g
         id="g3883"
         style="fill:#ffffff" />
      <g
         id="g3885"
         style="fill:#ffffff" />
      <g
         id="g3887"
         style="fill:#ffffff" />
      <g
         id="g3889"
         style="fill:#ffffff" />
      <g
         id="g3891"
         style="fill:#ffffff" />
      <g
         id="g3893"
         style="fill:#ffffff" />
      <g
         id="g3895"
         style="fill:#ffffff" />
    </g>
    <g
       id="g4161"
       transform="matrix(1.6469662,0,0,1.7679115,12.584496,977.65765)"
       style="fill:#ffffff">
      <g
         id="g4121"
         style="fill:#ffffff">
        <path
           id="path4123"
           d="M 22.08,0.098 10.97,3.497 C 9.624,3.881 8.533,5.285 8.533,6.631 l 0,11.557 c 0,0 0,0.158 0,0.162 0,0 -0.805,-0.543 -2.598,-0.289 -2.633,0.374 -4.768,2.395 -4.768,4.515 0,2.12 2.135,3.419 4.768,3.045 2.635,-0.372 4.566,-2.331 4.566,-4.452 0,0 0,-9.066 0,-10.006 0,-0.94 1.13,-1.343 1.13,-1.343 l 9.823,-3.079 c 0,0 1.087,-0.365 1.087,0.641 0,1.006 0,8.031 0,8.031 0,0 0,0.002 0,0.006 0,0 -1.001,-0.576 -2.794,-0.358 -2.633,0.319 -4.768,2.298 -4.768,4.417 0,2.121 2.135,3.463 4.768,3.143 2.635,-0.319 4.77,-2.297 4.77,-4.418 l 0,-16.363 c 0,-1.346 -1.092,-2.126 -2.437,-1.742 z"
           style="fill:#ffffff"
           inkscape:connector-curvature="0" />
      </g>
      <g
         id="g4125"
         style="fill:#ffffff" />
      <g
         id="g4127"
         style="fill:#ffffff" />
      <g
         id="g4129"
         style="fill:#ffffff" />
      <g
         id="g4131"
         style="fill:#ffffff" />
      <g
         id="g4133"
         style="fill:#ffffff" />
      <g
         id="g4135"
         style="fill:#ffffff" />
      <g
         id="g4137"
         style="fill:#ffffff" />
      <g
         id="g4139"
         style="fill:#ffffff" />
      <g
         id="g4141"
         style="fill:#ffffff" />
      <g
         id="g4143"
         style="fill:#ffffff" />
      <g
         id="g4145"
         style="fill:#ffffff" />
      <g
         id="g4147"
         style="fill:#ffffff" />
      <g
         id="g4149"
         style="fill:#ffffff" />
      <g
         id="g4151"
         style="fill:#ffffff" />
      <g
         id="g4153"
         style="fill:#ffffff" />
    </g>
    <g
       id="g5105"
       transform="matrix(0.20073298,0,0,0.23430224,85.24998,973.80741)"
       style="fill:#ffffff">
      <g
         id="g5051"
         style="fill:#ffffff">
        <g
           id="g5053"
           style="fill:#ffffff">
          <path
             id="path5055"
             d="m 197.609,67.258 c -1.501,0 -2.72,1.218 -2.72,2.72 0,0.19 -0.027,0.375 -0.027,0.566 -0.305,33.521 -27.092,60.695 -60.009,60.695 -23.997,0 -45.558,-14.484 -55.092,-36.92 -0.071,-0.163 -0.152,-0.315 -0.218,-0.479 -0.577,-1.387 -2.17,-2.051 -3.552,-1.474 -1.387,0.571 -2.045,2.165 -1.474,3.552 10.274,24.759 33.956,40.755 60.336,40.755 36.105,0 65.475,-29.92 65.475,-66.705 0.001,-1.497 -1.218,-2.71 -2.719,-2.71 z"
             style="fill:#ffffff"
             inkscape:connector-curvature="0" />
          <path
             id="path5057"
             d="m 200.454,159.467 c 1.104,0.685 2.54,0.479 3.421,-0.49 32.324,-35.419 29.958,-90.414 -5.113,-122.966 -0.185,-0.169 -0.337,-0.359 -0.522,-0.522 -1.104,-1.017 -2.828,-0.941 -3.84,0.174 -0.375,0.413 -0.593,0.908 -0.669,1.42 0.06,-0.533 0.267,-1.05 0.669,-1.496 1.012,-1.115 2.736,-1.153 3.84,-0.136 0.185,0.169 0.337,0.375 0.522,0.544 0.082,-0.049 0.158,-0.076 0.239,-0.125 1.289,-0.772 1.708,-2.437 0.941,-3.726 -0.767,-1.289 -2.437,-2.91 -3.731,-2.138 -1.387,0.838 -2.779,1.153 -4.166,1.153 -50.219,27.195 -99.48,10.878 -114.144,0 l -3.584,0 c 0,0.337 0,0.528 0,0.794 0,-0.435 -1.006,-0.707 -1.055,-0.734 -0.06,-0.033 0.005,-0.038 -0.054,-0.065 -0.163,-0.082 -0.272,-0.136 -0.446,-0.185 -0.174,-0.049 -0.315,-0.092 -0.5,-0.109 -0.065,-0.005 -0.109,-0.038 -0.174,-0.038 -0.114,0 -0.201,0.049 -0.305,0.065 -0.179,0.022 -0.354,0.049 -0.517,0.103 -0.174,0.054 -0.332,0.136 -0.49,0.228 -0.141,0.082 -0.277,0.163 -0.397,0.267 -0.147,0.125 -0.272,0.272 -0.392,0.424 -0.065,0.082 -0.152,0.131 -0.207,0.223 -0.033,0.054 -0.033,0.12 -0.065,0.174 -0.087,0.169 -0.136,0.343 -0.185,0.522 -0.049,0.169 -0.092,0.343 -0.103,0.522 -0.005,0.065 -0.038,0.125 -0.038,0.19 0,36.763 -29.909,66.667 -66.667,66.667 -1.061,0 -2.023,0.615 -2.469,1.572 -0.446,0.963 -0.294,2.094 0.392,2.899 1.033,1.229 25.553,29.54 77.817,30.529 -0.43,7.103 -2.507,25.792 -12.477,25.792 -1.153,0 -2.187,0.734 -2.567,1.822 -0.381,1.093 -0.027,2.306 0.876,3.03 0.294,0.234 4.052,3.149 10.612,6.266 -7.296,9.389 -11.206,21.458 -11.206,35.29 0,1.501 1.218,1.615 2.72,1.615 1.502,0 2.72,1.621 2.72,-3.818 l -0.207,0 c 0.267,-13.908 4.743,-23.067 11.291,-30.736 -0.065,-0.027 -0.12,-0.092 -0.185,-0.125 0.109,0.044 0.207,0.087 0.315,0.125 1.267,-1.485 2.622,-2.861 4.041,-4.155 16.518,-14.995 42.354,-17.318 56.289,-17.318 6.413,0 15.371,0.506 24.775,2.48 2.279,0.479 4.569,1.028 6.87,1.692 0.103,-0.076 0.207,-0.152 0.305,-0.228 19.581,5.999 37.666,18.765 37.666,49.207 l 0,-0.936 1.931,0 c 0,5.439 1.218,3.976 2.72,3.976 1.502,0 2.72,-0.587 2.72,-2.089 0,-26.619 -14.43,-45.286 -39.868,-54.162 4.612,-3.72 9.301,-7.849 14.065,-12.581 2.045,-0.473 6.358,-0.903 8.349,1.213 2.083,2.225 1.768,7.424 -0.897,14.637 -0.454,1.223 0.024,2.588 1.134,3.263 z M 197.609,29.968 C 142.087,67.987 87.37,38.692 74.812,32.062 c 0,-0.103 0.011,-0.903 0.011,-0.903 l 1.67,0 c 15.18,10.878 67.765,35.343 121.116,-1.191 z m 17.34,175.241 c 0,-26.766 -15.692,-43.284 -38.77,-50.975 0.044,-0.038 0.092,-0.071 0.136,-0.109 23.002,7.713 38.634,24.373 38.634,51.084 z m -25.254,-69.913 c -0.435,0.125 -0.832,0.364 -1.153,0.685 -5.891,5.891 -11.656,10.911 -17.285,15.251 -9.056,-2.388 -19.26,-3.671 -30.578,-3.671 -27.462,0 -48.593,7.321 -61.712,20.571 -2.611,-1.18 -4.814,-2.355 -6.56,-3.383 11.444,-6.701 11.596,-31.03 11.596,-32.226 0,-1.501 -1.218,-2.72 -2.72,-2.72 -39.303,0 -63.001,-16.48 -72.149,-24.432 35.306,-3.129 63.306,-31.836 65.476,-67.402 0.011,-0.196 0.016,-0.386 0.027,-0.582 9.018,4.552 32.836,15.235 62.549,15.235 17.508,0 37.04,-3.557 56.746,-14.109 0.016,0.044 0,0.098 0.022,0.141 0.147,0.315 0.354,0.604 0.625,0.854 30.513,27.848 35.115,73.645 12.412,106.812 0.038,-3.59 -0.897,-6.424 -2.812,-8.469 -4.954,-5.291 -14.097,-2.67 -14.484,-2.555 z"
             style="fill:#ffffff"
             inkscape:connector-curvature="0" />
          <path
             id="path5059"
             d="m 85.907,21.179 c -4.705,-2.105 -7.305,-3.421 -7.392,-3.476 -1.262,-0.816 -2.948,-0.315 -3.758,0.946 -0.816,1.256 -0.462,1.822 0.794,2.643 0.702,0.457 10.606,9.866 27.946,9.866 9.089,5.439 20.184,4.525 33.157,4.525 6.092,0 12.586,0.223 19.461,-0.636 1.3,-0.163 2.219,1.294 2.317,-3.16 0.011,0.049 0.038,0.071 0.044,0.12 0.011,0.12 -0.027,-0.848 -0.027,-0.848 l -0.288,0 c -0.517,-0.805 -1.572,-1.066 -2.72,-0.908 -3.568,0.446 -7,-0.185 -10.361,0 l 10.693,0.908 -10.699,-0.609 c -28.24,1.556 -48.882,-4.775 -59.167,-9.371 z m -8.871,-2.089 0.571,0.136 c 2.921,2.143 17.536,11.933 41.114,11.933 -26.472,0 -41.685,-12.069 -41.685,-12.069 z"
             style="fill:#ffffff"
             inkscape:connector-curvature="0" />
          <circle
             id="circle5061"
             r="7.3699999"
             cy="77.348"
             cx="106.005"
             style="fill:#ffffff" />
          <path
             id="path5063"
             d="m 171.306,69.978 c -3.927,0 -7.103,3.079 -7.326,6.946 -0.011,0.141 -0.044,0.277 -0.044,0.424 0,4.068 3.301,7.37 7.37,7.37 4.068,0 7.37,-3.302 7.37,-7.37 0,-1.191 -0.31,-2.295 -0.81,-3.291 -1.213,-2.409 -3.677,-4.079 -6.56,-4.079 z"
             style="fill:#ffffff"
             inkscape:connector-curvature="0" />
          <path
             id="path5065"
             d="m 150.474,90.353 c -4.112,4.112 -10.802,4.112 -14.914,0 -1.061,-1.061 -2.785,-1.061 -3.845,0 -1.061,1.061 -1.061,2.785 0,3.845 3.117,3.117 7.212,4.672 11.302,4.672 4.09,0 8.186,-1.556 11.302,-4.672 1.061,-1.061 1.061,-2.785 0,-3.845 -1.06,-1.061 -2.779,-1.061 -3.845,0 z"
             style="fill:#ffffff"
             inkscape:connector-curvature="0" />
          <path
             id="path5067"
             d="m 129.382,64.457 c 5.02,1.659 10.47,2.339 16.018,2.339 24.269,0 50.502,-12.983 51.845,-13.657 1.343,-0.674 1.887,-2.312 1.213,-3.655 -0.669,-1.338 -2.306,-1.882 -3.65,-1.213 -0.12,0.06 -4.036,1.996 -10.106,4.357 -11.672,4.542 -31.318,10.617 -47.499,8.066 -2.099,-0.332 -4.161,-0.756 -6.114,-1.403 -1.447,-0.484 -2.964,0.305 -3.432,1.73 -0.478,1.429 0.294,2.969 1.725,3.436 z"
             style="fill:#ffffff"
             inkscape:connector-curvature="0" />
        </g>
      </g>
      <g
         id="g5069"
         style="fill:#ffffff" />
      <g
         id="g5071"
         style="fill:#ffffff" />
      <g
         id="g5073"
         style="fill:#ffffff" />
      <g
         id="g5075"
         style="fill:#ffffff" />
      <g
         id="g5077"
         style="fill:#ffffff" />
      <g
         id="g5079"
         style="fill:#ffffff" />
      <g
         id="g5081"
         style="fill:#ffffff" />
      <g
         id="g5083"
         style="fill:#ffffff" />
      <g
         id="g5085"
         style="fill:#ffffff" />
      <g
         id="g5087"
         style="fill:#ffffff" />
      <g
         id="g5089"
         style="fill:#ffffff" />
      <g
         id="g5091"
         style="fill:#ffffff" />
      <g
         id="g5093"
         style="fill:#ffffff" />
      <g
         id="g5095"
         style="fill:#ffffff" />
      <g
         id="g5097"
         style="fill:#ffffff" />
    </g>
    <g
       id="g5172"
       transform="matrix(0.9230588,0,0,0.89587503,155.2504,976.34137)"
       style="fill:#ffffff">
      <g
         id="g5132"
         style="fill:#ffffff">
        <path
           id="path5134"
           d="M 48.831,15.334 C 41.748,3.697 31.078,11.793 31.078,11.793 c -0.692,0.523 -1.968,0.953 -2.835,0.955 l -2.858,0.002 c -0.867,10e-4 -2.143,-0.429 -2.834,-0.952 0,0 -10.671,-8.098 -17.755,3.539 -7.082,11.633 -4.228,24.302 -4.228,24.302 0.5,3.102 2.148,5.172 5.258,4.912 3.101,-0.259 9.832,-8.354 9.832,-8.354 0.556,-0.667 1.721,-1.212 2.586,-1.212 l 17.134,-0.003 c 0.866,0 2.03,0.545 2.585,1.212 0,0 6.732,8.095 9.838,8.354 3.106,0.26 4.758,-1.812 5.255,-4.912 -10e-4,0 2.858,-12.667 -4.225,-24.302 z m -28.457,9.472 -3.674,0 0,3.541 c 0,0 -0.778,0.594 -1.982,0.579 -1.202,-0.018 -1.746,-0.648 -1.746,-0.648 l 0,-3.471 -3.47,0 c 0,0 -0.433,-0.444 -0.549,-1.613 C 8.839,22.025 9.432,21.08 9.432,21.08 l 3.675,0 0,-3.674 c 0,0 0.756,-0.405 1.843,-0.374 1.088,0.034 1.885,0.443 1.885,0.443 l -0.015,3.604 3.47,0 c 0,0 0.606,0.778 0.656,1.718 0.05,0.941 -0.572,2.009 -0.572,2.009 z m 16.852,4.036 c -1.609,0 -2.906,-1.301 -2.906,-2.908 0,-1.61 1.297,-2.908 2.906,-2.908 1.602,0 2.909,1.298 2.909,2.908 0,1.608 -1.307,2.908 -2.909,2.908 z m 0,-8.001 c -1.609,0 -2.906,-1.3 -2.906,-2.907 0,-1.61 1.297,-2.908 2.906,-2.908 1.602,0 2.909,1.298 2.909,2.908 0,1.608 -1.307,2.907 -2.909,2.907 z m 7.242,4.295 c -1.609,0 -2.906,-1.3 -2.906,-2.908 0,-1.609 1.297,-2.908 2.906,-2.908 1.602,0 2.909,1.299 2.909,2.908 0,1.608 -1.307,2.908 -2.909,2.908 z"
           style="fill:#ffffff"
           inkscape:connector-curvature="0" />
      </g>
      <g
         id="g5136"
         style="fill:#ffffff" />
      <g
         id="g5138"
         style="fill:#ffffff" />
      <g
         id="g5140"
         style="fill:#ffffff" />
      <g
         id="g5142"
         style="fill:#ffffff" />
      <g
         id="g5144"
         style="fill:#ffffff" />
      <g
         id="g5146"
         style="fill:#ffffff" />
      <g
         id="g5148"
         style="fill:#ffffff" />
      <g
         id="g5150"
         style="fill:#ffffff" />
      <g
         id="g5152"
         style="fill:#ffffff" />
      <g
         id="g5154"
         style="fill:#ffffff" />
      <g
         id="g5156"
         style="fill:#ffffff" />
      <g
         id="g5158"
         style="fill:#ffffff" />
      <g
         id="g5160"
         style="fill:#ffffff" />
      <g
         id="g5162"
         style="fill:#ffffff" />
      <g
         id="g5164"
         style="fill:#ffffff" />
    </g>
    <g
       id="g5298"
       transform="matrix(0.10888042,0,0,0.10899306,301.55495,977.89384)"
       style="fill:#ffffff">
      <g
         id="g5258"
         style="fill:#ffffff">
        <path
           id="path5260"
           d="M 380.546,110.125 211.552,1.586 c -3.293,-2.115 -7.515,-2.115 -10.807,0 L 31.744,110.081 c -2.866,1.84 -4.6,5.014 -4.598,8.42 l 0.041,180.039 c 0.002,3.476 1.806,6.699 4.767,8.519 l 168.961,103.75 c 1.605,0.986 3.419,1.479 5.233,1.479 1.814,0 3.629,-0.491 5.232,-1.479 L 380.352,307.1 c 2.96,-1.818 4.766,-5.043 4.767,-8.519 l 0.023,-180.039 c 10e-4,-3.405 -1.733,-6.577 -4.596,-8.417 z M 206.147,25.627 268.083,65.256 206.147,104.883 144.213,65.256 206.147,25.627 Z m -155.95,265.627 0,-63.938 60.692,36.848 0.01,64.377 -60.702,-37.287 z m 60.702,-53.631 -60.703,-37.285 0,-64.74 60.703,38.842 0,63.183 z M 63.22,116.834 122.406,78.965 181.592,116.834 122.406,154.703 63.22,116.834 Z m 70.688,57.606 60.705,-38.844 0,64.742 -60.705,37.285 0,-63.183 z m 0.03,103.487 40.348,25.815 -40.348,24.783 0,-50.598 0,0 z m 60.704,102.025 -50.232,-30.854 50.232,-30.847 0,61.701 z m 11.496,-82.912 -62.076,-38.765 62.076,-38.592 62.076,38.733 -62.076,38.624 z m 11.515,82.912 0,-61.645 50.194,30.812 -50.194,30.833 z m 60.705,-51.381 -40.388,-24.805 40.388,-25.842 0,50.647 z m 0.03,-90.901 -60.703,-37.287 0,-64.736 60.703,38.842 0,63.181 z m -47.68,-120.791 59.186,-37.867 59.186,37.867 -59.186,37.869 -59.186,-37.869 z m 131.396,174.421 -60.705,37.286 0,-63.17 60.705,-37.983 0,63.867 z m 0,-90.917 -60.705,37.287 0,-63.182 60.705,-38.844 0,64.739 z"
           inkscape:connector-curvature="0"
           style="fill:#ffffff" />
      </g>
      <g
         id="g5262"
         style="fill:#ffffff" />
      <g
         id="g5264"
         style="fill:#ffffff" />
      <g
         id="g5266"
         style="fill:#ffffff" />
      <g
         id="g5268"
         style="fill:#ffffff" />
      <g
         id="g5270"
         style="fill:#ffffff" />
      <g
         id="g5272"
         style="fill:#ffffff" />
      <g
         id="g5274"
         style="fill:#ffffff" />
      <g
         id="g5276"
         style="fill:#ffffff" />
      <g
         id="g5278"
         style="fill:#ffffff" />
      <g
         id="g5280"
         style="fill:#ffffff" />
      <g
         id="g5282"
         style="fill:#ffffff" />
      <g
         id="g5284"
         style="fill:#ffffff" />
      <g
         id="g5286"
         style="fill:#ffffff" />
      <g
         id="g5288"
         style="fill:#ffffff" />
      <g
         id="g5290"
         style="fill:#ffffff" />
    </g>
    <g
       id="g5360"
       transform="matrix(0.08872861,0,0,0.08876989,374.25,978.60198)"
       style="fill:#ffffff">
      <g
         id="g5318"
         style="fill:#ffffff">
        <circle
           id="circle5320"
           r="30"
           cy="245.145"
           cx="245.259"
           style="fill:#ffffff" />
        <path
           id="path5322"
           d="m 460.259,156.145 c -5.665,0 -10.961,1.571 -15.48,4.299 -17.505,-6.889 -42.389,-10.398 -72.267,-10.398 -8.71,0 -17.85,0.303 -27.346,0.9 C 353.299,69.778 341.205,9.23 310.664,1.046 308.33,0.421 305.938,0.114 303.493,0.114 274.669,0.116 238.642,42.749 208.142,108.569 166.312,79.342 128.194,61.32 100.731,58.092 96.089,47.527 85.539,40.145 73.258,40.145 c -16.569,0 -30,13.432 -30,30 0,10.909 5.824,20.457 14.532,25.707 1.581,28.223 20.6,69.309 52.562,114.553 C 38.057,243.144 -6.9,282.139 0.869,311.129 c 6.169,23.026 44.311,34.893 99.314,34.893 14.85,0 30.932,-0.867 47.944,-2.61 -2.561,42.689 0.995,78.255 10.362,101.373 -2.684,4.493 -4.23,9.745 -4.23,15.36 0,16.568 13.431,30 30,30 14.462,0 26.533,-10.234 29.368,-23.855 21.472,-13.338 44.837,-44.17 66.1,-86.434 47.391,33.521 90.243,52.869 118.56,52.869 10.893,0 19.643,-2.865 25.664,-8.887 21.865,-21.865 2.095,-79.597 -45.205,-145.944 40.414,-20.017 70.428,-41.8 84.696,-61.919 15.071,-1.59 26.817,-14.337 26.817,-29.83 0,-16.568 -13.432,-30 -30,-30 z M 179.106,263.453 c 2.838,-13.887 6.165,-28.008 9.976,-42.232 1.921,-7.17 3.94,-14.268 6.047,-21.273 8.622,-2.649 17.398,-5.176 26.305,-7.563 15.14,-4.057 30.27,-7.6 45.172,-10.598 7.179,6.654 14.322,13.531 21.4,20.609 8.321,8.32 16.357,16.73 24.079,25.174 -1.906,8.262 -3.975,16.584 -6.214,24.943 -3.484,13.003 -7.291,25.765 -11.369,38.18 -13.971,4.668 -28.432,9.021 -43.246,12.99 -8.562,2.294 -17.121,4.422 -25.637,6.383 -7.753,-7.145 -15.469,-14.535 -23.108,-22.175 -8.08,-8.078 -15.889,-16.241 -23.405,-24.438 z m 22.673,51.678 c -10.723,2.088 -21.313,3.886 -31.692,5.389 1.149,-10.606 2.65,-21.507 4.489,-32.621 4.495,4.722 9.093,9.437 13.792,14.136 4.459,4.459 8.932,8.822 13.411,13.096 z M 302.148,188.255 c -3.704,-3.704 -7.417,-7.346 -11.137,-10.923 10.667,-1.745 21.142,-3.184 31.346,-4.313 -1.444,10.035 -3.179,20.275 -5.196,30.664 -4.883,-5.152 -9.884,-10.3 -15.013,-15.428 z m 23.041,69.435 c 1.062,-3.963 2.084,-7.911 3.069,-11.844 6.945,8.121 13.565,16.239 19.835,24.31 -9.594,4.206 -19.603,8.268 -29.961,12.161 2.459,-8.059 4.818,-16.27 7.057,-24.627 z M 250.042,72.456 c 10.955,-17.62 22.207,-31.788 32.543,-40.972 11.547,-10.263 18.47,-11.371 20.91,-11.371 0.712,0 1.365,0.082 1.993,0.25 4.05,1.085 8.439,6.593 12.041,15.109 5.102,12.064 8.426,29.526 9.613,50.498 1.139,20.117 0.361,42.631 -2.213,66.649 -16.622,1.692 -34.138,4.226 -52.271,7.61 -16.154,-14.572 -32.273,-27.861 -48.013,-39.692 8.021,-17.664 16.553,-33.857 25.397,-48.081 z m -33.554,66.969 c 10.516,8.033 21.094,16.677 31.649,25.822 -10.486,2.334 -21.128,4.938 -31.878,7.819 -4.63,1.24 -9.213,2.52 -13.754,3.826 4.384,-12.94 9.062,-25.476 13.983,-37.467 z M 96.442,149.831 C 85.163,128.016 79.927,111.348 78.292,99.716 89.702,97.787 98.917,89.42 102.076,78.479 c 18.444,3.135 43.92,14.239 71.928,31.535 8.521,5.262 17.175,11.029 25.903,17.216 -7.426,17.671 -14.424,36.708 -20.79,56.802 -17.583,5.682 -34.325,11.821 -50.015,18.28 -12.99,-18.099 -24.022,-35.774 -32.66,-52.481 z m 53.313,173.282 c -17.479,1.915 -34.15,2.909 -49.572,2.909 -25.356,0 -46.632,-2.679 -61.528,-7.746 -12.303,-4.186 -17.606,-9.109 -18.467,-12.323 -0.942,-3.515 1.72,-9.735 7.121,-16.64 7.963,-10.182 21.49,-21.535 39.119,-32.836 16.15,-10.352 35.06,-20.318 55.998,-29.605 10.616,13.984 22.364,28.254 35.135,42.568 -3.513,18.611 -6.105,36.598 -7.806,53.673 z m 12.893,-78.216 c -7.455,-8.703 -14.542,-17.403 -21.22,-26.047 9.892,-3.971 20.147,-7.787 30.706,-11.423 -0.802,2.857 -1.595,5.727 -2.37,8.618 -2.604,9.715 -4.971,19.343 -7.116,28.852 z m 82.263,156.383 c -10.955,17.619 -22.208,31.787 -32.543,40.971 -0.882,0.784 -1.728,1.498 -2.556,2.178 -5.282,-8.568 -14.749,-14.283 -25.554,-14.283 -3.241,0 -6.358,0.521 -9.282,1.471 -3.72,-11.488 -6.179,-26.457 -7.164,-43.852 -0.818,-14.463 -0.648,-30.162 0.469,-46.77 16.556,-2.27 33.829,-5.315 51.575,-9.145 14.628,13.102 29.216,25.15 43.508,36.006 -5.944,12.027 -12.118,23.234 -18.453,33.424 z m 27.136,-51.952 c -9.393,-7.237 -18.83,-14.937 -28.252,-23.057 4.194,-1.049 8.406,-2.135 12.637,-3.269 10.153,-2.721 20.101,-5.605 29.809,-8.633 -4.494,12.134 -9.243,23.823 -14.194,34.959 z m 122.026,-8.871 c 21.248,41.096 21.051,63.922 15.734,69.238 -2.635,2.637 -8.35,3.029 -11.521,3.029 -18.566,0 -48.368,-11.826 -81.764,-32.446 -9.22,-5.693 -18.592,-11.954 -28.05,-18.726 7.728,-17.005 15.081,-35.496 21.848,-55.152 17.76,-6.222 34.53,-12.894 50.065,-19.857 13.44,18.6 24.823,36.766 33.688,53.914 z M 406.264,239.59 c -11.811,7.571 -25.104,14.936 -39.579,21.98 -9.993,-13.064 -20.974,-26.368 -32.838,-39.714 3.749,-17.425 6.72,-34.399 8.932,-50.703 10.314,-0.732 20.259,-1.107 29.733,-1.107 24.048,0 44.415,2.414 59.161,6.985 -0.916,2.875 -1.414,5.936 -1.414,9.114 0,9.896 4.793,18.669 12.182,24.134 -8.163,9.244 -20.556,19.298 -36.177,29.311 z"
           inkscape:connector-curvature="0"
           style="fill:#ffffff" />
      </g>
      <g
         id="g5324"
         style="fill:#ffffff" />
      <g
         id="g5326"
         style="fill:#ffffff" />
      <g
         id="g5328"
         style="fill:#ffffff" />
      <g
         id="g5330"
         style="fill:#ffffff" />
      <g
         id="g5332"
         style="fill:#ffffff" />
      <g
         id="g5334"
         style="fill:#ffffff" />
      <g
         id="g5336"
         style="fill:#ffffff" />
      <g
         id="g5338"
         style="fill:#ffffff" />
      <g
         id="g5340"
         style="fill:#ffffff" />
      <g
         id="g5342"
         style="fill:#ffffff" />
      <g
         id="g5344"
         style="fill:#ffffff" />
      <g
         id="g5346"
         style="fill:#ffffff" />
      <g
         id="g5348"
         style="fill:#ffffff" />
      <g
         id="g5350"
         style="fill:#ffffff" />
      <g
         id="g5352"
         style="fill:#ffffff" />
    </g>
    <g
       id="g5453"
       transform="matrix(1.5572364,0,0,1.371458,227.5,978.78563)"
       style="fill:#ffffff">
      <g
         id="g5381"
         style="fill:#ffffff">
        <g
           id="g5383"
           style="fill:#ffffff">
          <path
             id="path5385"
             d="m 30.221,7.01 0,-1.982 -0.287,-0.113 C 29.835,4.878 27.507,3.973 24.399,3.973 21.074,3.973 18.206,4.987 15.873,6.988 13.542,4.987 10.674,3.973 7.347,3.973 4.239,3.973 1.911,4.878 1.814,4.916 l -0.287,0.112 0,1.836 C 0.586,7.04 0,7.355 0,7.87 0,10.546 0,26.787 0,26.787 l 13.934,0 c 0.481,0.431 1.187,0.705 1.974,0.705 0.787,0 1.492,-0.273 1.976,-0.705 l 13.582,0 c 0,0 0,-17.979 0,-18.917 C 31.465,7.451 30.991,7.178 30.221,7.01 Z M 15.724,25.296 c -1.158,-0.479 -5.143,-1.993 -9.132,-1.993 -1.576,0 -2.973,0.242 -4.163,0.719 l 0,-18.368 C 3.122,5.422 5.016,4.875 7.346,4.875 c 3.063,0 5.695,0.927 7.847,2.734 l 0,10.964 0.531,-0.584 0,7.307 z m 13.592,-1.268 c -1.278,-0.514 -2.746,-0.772 -4.371,-0.772 -3.986,0 -7.782,1.528 -8.924,2.03 l 0,-7.297 0.531,0.584 0,-10.964 c 2.15,-1.807 4.783,-2.734 7.846,-2.734 2.324,0 4.223,0.548 4.918,0.779 l 0,18.374 z"
             inkscape:connector-curvature="0"
             style="fill:#ffffff" />
          <path
             id="path5387"
             d="m 9.769,8.651 c 2.135,0.41 3.59,1.197 3.615,1.21 L 13.738,9.223 C 13.633,9.163 12.061,8.311 9.768,7.895 l 10e-4,0.756 0,0 z"
             inkscape:connector-curvature="0"
             style="fill:#ffffff" />
          <path
             id="path5389"
             d="m 9.769,10.721 c 2.135,0.409 3.59,1.197 3.615,1.211 l 0.354,-0.639 c -0.105,-0.06 -1.677,-0.912 -3.97,-1.327 l 10e-4,0.755 0,0 z"
             inkscape:connector-curvature="0"
             style="fill:#ffffff" />
          <path
             id="path5391"
             d="m 9.769,12.666 c 2.135,0.41 3.59,1.197 3.615,1.211 l 0.354,-0.639 c -0.105,-0.061 -1.677,-0.912 -3.97,-1.327 l 10e-4,0.755 0,0 z"
             inkscape:connector-curvature="0"
             style="fill:#ffffff" />
          <path
             id="path5393"
             d="m 9.769,14.798 c 2.135,0.41 3.59,1.198 3.615,1.211 l 0.354,-0.638 c -0.105,-0.06 -1.677,-0.913 -3.97,-1.328 l 10e-4,0.755 0,0 z"
             inkscape:connector-curvature="0"
             style="fill:#ffffff" />
          <path
             id="path5395"
             d="m 4.216,16.192 0.188,0.707 c 4.705,-1.246 8.938,1.063 8.98,1.086 l 0.354,-0.639 C 13.558,17.245 9.212,14.869 4.216,16.192 Z"
             inkscape:connector-curvature="0"
             style="fill:#ffffff" />
          <path
             id="path5397"
             d="m 4.216,18.221 0.188,0.707 c 4.705,-1.248 8.938,1.061 8.98,1.085 l 0.354,-0.638 C 13.558,19.272 9.212,16.898 4.216,18.221 Z"
             inkscape:connector-curvature="0"
             style="fill:#ffffff" />
          <path
             id="path5399"
             d="m 4.216,20.255 0.188,0.707 c 4.705,-1.249 8.938,1.062 8.98,1.084 l 0.354,-0.638 C 13.558,21.306 9.212,18.931 4.216,20.255 Z"
             inkscape:connector-curvature="0"
             style="fill:#ffffff" />
          <path
             id="path5401"
             d="M 18.577,9.916 C 18.621,9.893 22.853,7.584 27.556,8.832 L 27.744,8.125 C 22.748,6.801 18.401,9.177 18.22,9.279 l 0.357,0.637 z"
             inkscape:connector-curvature="0"
             style="fill:#ffffff" />
          <path
             id="path5403"
             d="m 18.223,11.348 0.354,0.638 c 0.044,-0.023 4.276,-2.333 8.979,-1.084 l 0.188,-0.708 c -4.994,-1.324 -9.34,1.052 -9.521,1.154 z"
             inkscape:connector-curvature="0"
             style="fill:#ffffff" />
          <path
             id="path5405"
             d="m 18.223,13.292 0.354,0.639 c 0.044,-0.024 4.276,-2.332 8.979,-1.086 l 0.188,-0.706 c -4.994,-1.323 -9.34,1.052 -9.521,1.153 z"
             inkscape:connector-curvature="0"
             style="fill:#ffffff" />
          <path
             id="path5407"
             d="m 18.223,15.425 0.354,0.638 c 0.044,-0.023 4.276,-2.333 8.979,-1.085 l 0.188,-0.707 c -4.994,-1.325 -9.34,1.052 -9.521,1.154 z"
             inkscape:connector-curvature="0"
             style="fill:#ffffff" />
          <path
             id="path5409"
             d="m 18.223,17.4 0.354,0.64 c 0.044,-0.024 4.276,-2.333 8.979,-1.086 l 0.188,-0.707 c -4.994,-1.323 -9.34,1.051 -9.521,1.153 z"
             inkscape:connector-curvature="0"
             style="fill:#ffffff" />
          <path
             id="path5411"
             d="m 18.223,19.429 0.354,0.638 c 0.044,-0.023 4.276,-2.332 8.979,-1.085 l 0.188,-0.706 c -4.994,-1.324 -9.34,1.051 -9.521,1.153 z"
             inkscape:connector-curvature="0"
             style="fill:#ffffff" />
          <path
             id="path5413"
             d="m 18.223,21.463 0.354,0.637 c 0.044,-0.021 4.276,-2.333 8.979,-1.084 l 0.188,-0.707 c -4.994,-1.324 -9.34,1.053 -9.521,1.154 z"
             inkscape:connector-curvature="0"
             style="fill:#ffffff" />
          <path
             id="path5415"
             d="m 8.978,14.669 0,-6.897 c 0,0 -1.174,-0.134 -2.381,-0.102 -1.205,0.033 -2.381,0.4 -2.381,0.4 l 0,6.896 c 0,0 0.983,-0.291 2.251,-0.383 1.266,-0.092 2.511,0.086 2.511,0.086 z"
             inkscape:connector-curvature="0"
             style="fill:#ffffff" />
        </g>
      </g>
      <g
         id="g5417"
         style="fill:#ffffff" />
      <g
         id="g5419"
         style="fill:#ffffff" />
      <g
         id="g5421"
         style="fill:#ffffff" />
      <g
         id="g5423"
         style="fill:#ffffff" />
      <g
         id="g5425"
         style="fill:#ffffff" />
      <g
         id="g5427"
         style="fill:#ffffff" />
      <g
         id="g5429"
         style="fill:#ffffff" />
      <g
         id="g5431"
         style="fill:#ffffff" />
      <g
         id="g5433"
         style="fill:#ffffff" />
      <g
         id="g5435"
         style="fill:#ffffff" />
      <g
         id="g5437"
         style="fill:#ffffff" />
      <g
         id="g5439"
         style="fill:#ffffff" />
      <g
         id="g5441"
         style="fill:#ffffff" />
      <g
         id="g5443"
         style="fill:#ffffff" />
      <g
         id="g5445"
         style="fill:#ffffff" />
    </g>
  </g>
</svg>
